<ttFont>
          <CharString index="0">
            rmoveto
            -35 63 10 -2 11 hhcurveto
            13 14 3 48 47 hvcurveto
            11 10 19 20 2 16 rrcurveto
            12 -3 11 -12 12 vhcurveto
            -11 11 -9 4 -9 1 rrcurveto
            -14 -12 -8 -10 -11 hvcurveto
            -13 -12 -10 -7 -10 hhcurveto
            -5 -8 4 29 -58 hvcurveto
            8 -16 -13 6 -14 hhcurveto
            -19 -16 -9 -14 -16 hvcurveto
            -37 -33 rlineto
            -21 -20 -9 -16 -14 vvcurveto
            -9 4 -9 7 -8 vhcurveto
            -14 10 19 -8 12 hhcurveto
            10 12 8 11 10 hvcurveto
            return
          </CharString>
          <CharString index="1">
            -107 callsubr
            18 17 11 8 12 hhcurveto
            8 10 -4 -7 13 hvcurveto
            return
          </CharString>
          <CharString index="2">
            rmoveto
            6 -9 -9 3 -10 hhcurveto
            -17 -20 -4 -19 -13 hvcurveto
            -8 -12 -3 -13 -9 vvcurveto
            -18 12 -16 13 -9 vhcurveto
            110 -67 rlineto
            -6 9 11 -2 10 hhcurveto
            18 16 4 19 13 hvcurveto
            8 11 3 12 9 vvcurveto
            20 -13 17 -9 6 vhcurveto
            return
          </CharString>
          <CharString index="3">
            -82 callgsubr
            -102 callsubr
            return
          </CharString>
          <CharString index="4">
            rmoveto
            7 7 7 13 16 vvcurveto
            17 -9 13 -10 9 vhcurveto
            11 -12 -11 4 -12 hhcurveto
            -16 -18 -5 -11 -9 hvcurveto
            -55 -52 -55 52 rlineto
            11 -9 -18 5 -16 hhcurveto
            -12 -11 -4 -11 -12 hvcurveto
            -10 -9 -9 -13 -17 vvcurveto
            -16 7 -13 7 -7 vhcurveto
            95 -90 10 -10 12 -6 16 -1 rlinecurve
            10 hlineto
            15 1 13 6 10 10 rrcurveto
            return
          </CharString>
          <CharString index="5">
            -98 callgsubr
            -91 callsubr
            return
          </CharString>
          <CharString index="6">
            53 -25 23 -51 -48 -28 -23 -53 -51 28 -25 48 48 28 25 51 vhcurveto
            return
          </CharString>
          <CharString index="7">
            rmoveto
            -299 -78 callgsubr
            299 -78 callsubr
            166 -318 rmoveto
            326 vlineto
            0 1 65 65 64 1 -65 -77 callsubr
          </CharString>
          <CharString index="8">
            -105 callsubr
            endchar
          </CharString>
          <CharString index="9">
            -101 callgsubr
            endchar
          </CharString>
          <CharString index="10">
            rmoveto
            -133 81 -45 73 65 33 45 39 11 vhcurveto
            -28 5 -56 73 73 3 56 57 vhcurveto
            273 -74 callgsubr
            -95 vlineto
            -97 -11 -77 -54 -40 -4 36 38 vhcurveto
            195 -74 callgsubr
            return
          </CharString>
          <CharString index="11">
            -92 callgsubr
            -80 callgsubr
            return
          </CharString>
          <CharString index="12">
            59 178 -97 callsubr
            return
          </CharString>
          <CharString index="13">
            -85 callsubr
            123 -122 -122 -120 rlineto
            -84 callsubr
            return
          </CharString>
          <CharString index="14">
            -83 callsubr
            6 -37 callgsubr
            138 -66 callsubr
            130 -17 callsubr
            return
          </CharString>
          <CharString index="15">
            rmoveto
            13 13 17 17 21 vvcurveto
            19 -14 15 -17 17 vhcurveto
            -157 156 rlineto
            -94 callsubr
            return
          </CharString>
          <CharString index="16">
            35 3 36 41 52 12 -75 -42 vhcurveto
            -102 -1 -11 -46 -52 hhcurveto
            -41 -3 37 36 hvcurveto
            return
          </CharString>
          <CharString index="17">
            -49 callgsubr
            -88 callgsubr
            return
          </CharString>
          <CharString index="18">
            -83 callgsubr
            -65 callgsubr
            return
          </CharString>
          <CharString index="19">
            -1 -42 -2 -55 -41 vvcurveto
            -15 vlineto
            -50 0 -50 69 69 1 49 51 vhcurveto
            70 return
          </CharString>
          <CharString index="20">
            -93 callsubr
            68 -62 6 -53 hvcurveto
            return
          </CharString>
          <CharString index="21">
            112 rmoveto
            -56 8 -56 68 68 8 56 56 vhcurveto
            276 vlineto
            56 -8 56 -68 -68 -8 -56 -56 vhcurveto
            return
          </CharString>
          <CharString index="22">
            15 -15 -16 15 -20 hhcurveto
            -13 -14 -7 -16 -16 hvcurveto
            -15 -15 -6 -13 -13 vvcurveto
            -20 14 -17 15 -15 vhcurveto
            return
          </CharString>
          <CharString index="23">
            -16 -16 -14 -16 -19 vvcurveto
            -13 6 -14 17 -17 vhcurveto
            -15 15 13 -6 13 hhcurveto
            19 17 14 16 16 hvcurveto
            return
          </CharString>
          <CharString index="24">
            145 -8 callgsubr
            -75 0 -58 -57 hvcurveto
            -470 vlineto
            -57 0 -58 75 vhcurveto
            196 hlineto
            52 63 return
          </CharString>
          <CharString index="25">
            -90 callgsubr
            endchar
          </CharString>
          <CharString index="26">
            -58 callgsubr
            225 -94 callgsubr
            return
          </CharString>
          <CharString index="27">
            -60 callgsubr
            27 -11 26 -32 14 vhcurveto
            4 -10 -10 2 -9 hhcurveto
            -39 -25 -39 -38 -12 hvcurveto
            -33 callgsubr
            -8 -9 -1 -4 -10 hvcurveto
            -37 -13 -12 -23 -27 vvcurveto
            -20 6 -21 7 -21 vhcurveto
            -52 callgsubr
            -22 return
          </CharString>
          <CharString index="28">
            84 -36 callgsubr
            77 78 5 -49 callsubr
            -77 -77 -13 callgsubr
            return
          </CharString>
          <CharString index="29">
            vlineto
            193 -183 9 -38 vhcurveto
            -17 hlineto
            -37 -186 -9 -193 hvcurveto
            return
          </CharString>
          <CharString index="30">
            0 vhcurveto
            -326 vlineto
            0 -1 -65 -64 -65 -1 65 -16 callsubr
          </CharString>
          <CharString index="31">
            -37 3 -35 59 54 6 35 37 vhcurveto
            return
          </CharString>
          <CharString index="32">
            42 0 117 608 -89 callgsubr
            return
          </CharString>
          <CharString index="33">
            rmoveto
            193 hlineto
            -81 callgsubr
            -221 hlineto
            return
          </CharString>
          <CharString index="34">
            34 -6 38 -54 -59 -3 -38 -34 vhcurveto
            return
          </CharString>
          <CharString index="35">
            -13 callsubr
            -54 35 -6 37 hvcurveto
            return
          </CharString>
          <CharString index="36">
            -60 callsubr
            -48 callsubr
          </CharString>
          <CharString index="37">
            -42 callsubr
            3 69 67 -62 3 -53 hvcurveto
            -119 144 -66 callsubr
            136 -23 callgsubr
            3 68 68 -62 3 -53 hvcurveto
            return
          </CharString>
          <CharString index="38">
            -20 hstem
            76 -16 callgsubr
            76 -86 callsubr
            return
          </CharString>
          <CharString index="39">
            rmoveto
            -164 -93 -84 -157 -157 -92 84 164 176 92 77 157 167 83 -77 -176 vhcurveto
            44 1 rmoveto
            206 -95 90 -198 -188 -109 -90 -206 -199 109 -95 188 188 105 95 199 vhcurveto
            endchar
          </CharString>
          <CharString index="40">
            vlineto
            -73 callsubr
            return
          </CharString>
          <CharString index="41">
            63 hlineto
            54 58 2 66 66 -58 2 -54 hvcurveto
            -63 return
          </CharString>
          <CharString index="42">
            52 21 -21 170 132 398 return
          </CharString>
          <CharString index="43">
            -19 21 -23 32 vhcurveto
            37 1 36 10 40 vvcurveto
            36 -7 92 -162 vhcurveto
            -8 hlineto
            -120 -2 -70 -33 -104 vvcurveto
            -71 68 -37 60 -32 vhcurveto
            48 -26 48 -25 -38 vvcurveto
            -22 -18 -15 -26 -25 -31 6 26 -1 vhcurveto
            return
          </CharString>
          <CharString index="44">
            15 -6 13 -20 -20 -5 -13 -18 -7 vhcurveto
            -46 -162 -1 -4 -3 vvcurveto
            -13 10 -10 35 vhcurveto
            71 -40 hlineto
            return
          </CharString>
          <CharString index="45">
            -184 vhcurveto
            154 -159 rmoveto
            181 vlineto
            return
          </CharString>
          <CharString index="46">
            21 -18 8 -11 -17 -13 -11 -18 -18 10 -60 79 60 29 33 45 vhcurveto
            5 vlineto
            31 0 47 -51 6 vhcurveto
            40 63 rlineto
            2 4 0 6 2 vvcurveto
            16 -11 15 -21 vhcurveto
            -84 hlineto
            -20 -24 -1 -30 hvcurveto
            return
          </CharString>
          <CharString index="47">
            rmoveto
            -37 -45 -2 -54 -54 45 -2 37 hvcurveto
            201 hlineto
            return
          </CharString>
          <CharString index="48">
            rmoveto
            78 -67 callsubr
            -106 -70 callgsubr
            return
          </CharString>
          <CharString index="49">
            21 -45 callsubr
            return
          </CharString>
          <CharString index="50">
            -103 callgsubr
            endchar
          </CharString>
          <CharString index="51">
            80 -66 -7 22 vvcurveto
            14 15 13 1 14 vhcurveto
            4 vlineto
            17 -13 8 -11 -62 -29 -100 -65 vhcurveto
            return
          </CharString>
          <CharString index="52">
            rmoveto
            -36 -3 -37 -41 -52 -11 46 102 -1 vhcurveto
            42 12 75 52 41 3 -36 -35 vhcurveto
            endchar
          </CharString>
          <CharString index="53">
            -25 -3 -17 -19 hvcurveto
            -29 -44 vlineto
            4 19 14 56 9 31 rrcurveto
            4 9 2 11 10 vvcurveto
            return
          </CharString>
          <CharString index="54">
            57 hmoveto
            79 -37 35 -77 -73 -42 -35 -79 -78 42 -37 73 73 41 37 78 vhcurveto
            endchar
          </CharString>
          <CharString index="55">
            rmoveto
            -124 vlineto
            -184 166 return
          </CharString>
          <CharString index="56">
            1 callsubr
            -8 46 47 158 8 -64 callgsubr
            8 -47 -46 -166 -8 -184 vhcurveto
            154 return
          </CharString>
          <CharString index="57">
            -89 callsubr
            endchar
          </CharString>
          <CharString index="58">
            57 58 vhcurveto
            470 vlineto
            57 -6 58 return
          </CharString>
          <CharString index="59">
            34 48 2 54 54 -48 2 -34 hvcurveto
            endchar
          </CharString>
          <CharString index="60">
            63 14 -44 -72 -46 61 -4 27 80 0 43 20 70 -24 163 -221 return
          </CharString>
          <CharString index="61">
            10 0 100 -100 163 59 75 98 106 return
          </CharString>
          <CharString index="62">
            -21 700 -20 return
          </CharString>
          <CharString index="63">
            -16 10 -14 19 29 3 -1 -33 -44 -25 -9 -12 -31 -4 27 14 vhcurveto
            return
          </CharString>
          <CharString index="64">
            hstem
            40 136 200 139 vstem
            return
          </CharString>
          <CharString index="65">
            21 callsubr
            -83 callsubr
            return
          </CharString>
          <CharString index="66">
            117 265 return
          </CharString>
          <CharString index="67">
            -4 123 456 129 return
          </CharString>
          <CharString index="68">
            0 -18 62 -66 vhcurveto
            -66 hlineto
            -75 0 -57 -58 hvcurveto
            -507 vlineto
            -43 6 -35 69 61 6 35 43 vhcurveto
            415 return
          </CharString>
          <CharString index="69">
            vlineto
            -57 8 -57 68 69 9 57 57 vhcurveto
            return
          </CharString>
          <CharString index="70">
            154 108 152 return
          </CharString>
          <CharString index="71">
            152 56 152 return
          </CharString>
          <CharString index="72">
            rmoveto
            -23 0 -26 33 34 1 26 26 vhcurveto
            169 vlineto
            24 0 27 -35 -6 -5 0 -4 -7 vhcurveto
            -10 -5 return
          </CharString>
          <CharString index="73">
            hlineto
            -12 -71 0 -5 -4 vvcurveto
            hintmask 10100000
            -38 27 -3 25 30 10 31 38 6 vhcurveto
            hintmask 01100000
            8 52 rlineto
            return
          </CharString>
          <CharString index="74">
            -46 callsubr
            224 -20 -24 callsubr
            hintmask 01111110
            return
          </CharString>
          <CharString index="75">
            rmoveto
            -86 callgsubr
            return
          </CharString>
          <CharString index="76">
            hstem
            52 -28 callgsubr
            return
          </CharString>
          <CharString index="77">
            -199 -27 -153 -53 -39 31 -28 45 30 45 20 52 32 8 43 67 26 54 -4 -70 return
          </CharString>
          <CharString index="78">
            7 0 43 -80 -80 -8 -26 -20 -63 -14 -56 -63 return
          </CharString>
          <CharString index="79">
            154 114 149 return
          </CharString>
          <CharString index="80">
            62 -40 callsubr
            221 -19 callgsubr
            return
          </CharString>
          <CharString index="81">
            -7 0 148 138 136 return
          </CharString>
          <CharString index="82">
            -57 27 -25 55 53 30 25 57 return
          </CharString>
          <CharString index="83">
            23 callsubr
            125 138 return
          </CharString>
          <CharString index="84">
            -5 callsubr
            245 -38 callgsubr
            return
          </CharString>
          <CharString index="85">
            rmoveto
            -33 -17 -17 -32 -32 -18 17 33 34 18 16 32 33 16 -16 -34 vhcurveto
            return
          </CharString>
          <CharString index="86">
            vlineto
            -56 9 -57 69 69 7 -22 callgsubr
            return
          </CharString>
          <CharString index="87">
            0 -233 0 -220 vvcurveto
            -279 vlineto
            return
          </CharString>
          <CharString index="88">
            104 -4 118 586 return
          </CharString>
          <CharString index="89">
            -14 callgsubr
            155 vlineto
            21 5 37 49 vhcurveto
            return
          </CharString>
          <CharString index="90">
            -23 callgsubr
            6 68 return
          </CharString>
          <CharString index="91">
            0 vhcurveto
            endchar
          </CharString>
          <CharString index="92">
            45 132 hvcurveto
            145 vlineto
            133 return
          </CharString>
          <CharString index="93">
            -97 52 -45 91 89 51 45 97 vhcurveto
            return
          </CharString>
          <CharString index="94">
            -35 -3 -59 return
          </CharString>
          <CharString index="95">
            rmoveto
            -83 -12 -65 -23 -15 12 -12 20 12 19 8 22 hvcurveto
            return
          </CharString>
          <CharString index="96">
            -8 callgsubr
            -76 -4 callsubr
            return
          </CharString>
          <CharString index="97">
            -122 122 -122 return
          </CharString>
          <CharString index="98">
            rmoveto
            36 3 37 41 52 11 -46 -102 1 vhcurveto
            -42 -12 return
          </CharString>
          <CharString index="99">
            88 -21 22 -21 473 -20 21 -20 hstemhm
            hintmask 10100000
            return
          </CharString>
          <CharString index="100">
            -45 -4 103 -103 192 137 179 -98 98 return
          </CharString>
          <CharString index="101">
            -7 0 142 144 136 136 142 return
          </CharString>
          <CharString index="102">
            -19 callsubr
            -20 return
          </CharString>
          <CharString index="103">
            0 -57 -57 hvcurveto
            return
          </CharString>
          <CharString index="104">
            rlineto
            -78 30 22 0 29 hhcurveto
            27 19 0 78 return
          </CharString>
          <CharString index="105">
            rmoveto
            -4 -10 -3 -5 -7 vvcurveto
            -13 10 -12 16 return
          </CharString>
          <CharString index="106">
            rmoveto
            29 22 8 22 27 22 -14 -25 1 vhcurveto
            return
          </CharString>
          <CharString index="107">
            -21 474 -20 hstem
            return
          </CharString>
          <CharString index="108">
            312 -52 callsubr
            return
          </CharString>
          <CharString index="109">
            248 386 rmoveto
            59 2 -30 -32 hvcurveto
            return
          </CharString>
          <CharString index="110">
            -40 callgsubr
            60 63 60 0 -60 0 vhcurveto
            return
          </CharString>
          <CharString index="111">
            152 108 154 return
          </CharString>
          <CharString index="112">
            -41 callsubr
            117 return
          </CharString>
          <CharString index="113">
            21 -21 383 117 return
          </CharString>
          <CharString index="114">
            58 114 57 return
          </CharString>
          <CharString index="115">
            154 vstem
            return
          </CharString>
          <CharString index="116">
            hstem
            45 168 142 168 vstem
            return
          </CharString>
          <CharString index="117">
            -56 -79 119 622 119 hstem
            return
          </CharString>
          <CharString index="118">
            -37 -35 -6 -54 -59 35 -3 37 hvcurveto
            return
          </CharString>
          <CharString index="119">
            -52 -20 -54 -77 -51 -25 25 15 -8 return
          </CharString>
          <CharString index="120">
            -58 7 -56 70 67 8 56 58 vhcurveto
            return
          </CharString>
          <CharString index="121">
            6 -80 116 631 116 hstemhm
            return
          </CharString>
          <CharString index="122">
            hmoveto
            -86 callgsubr
            return
          </CharString>
          <CharString index="123">
            -42 0 127 247 126 return
          </CharString>
          <CharString index="124">
            -44 73 65 31 44 40 12 vhcurveto
            return
          </CharString>
          <CharString index="125">
            21 0 143 414 143 return
          </CharString>
          <CharString index="126">
            -42 -200 118 584 -20 return
          </CharString>
          <CharString index="127">
            16 10 7 8 11 hvcurveto
            endchar
          </CharString>
          <CharString index="128">
            hstem
            70 -16 callgsubr
            return
          </CharString>
          <CharString index="129">
            -187 21 -21 return
          </CharString>
          <CharString index="130">
            hstemhm
            46 152 return
          </CharString>
          <CharString index="131">
            0 0 vhcurveto
            return
          </CharString>
        <CharString name=".notdef">
          152 0 107 486 107 hstem
          119 125 164 125 vstem
          533 636 rmoveto
          58 -21 6 -70 vhcurveto
          -232 hlineto
          -70 -21 -6 -58 hvcurveto
          -572 vlineto
          -58 21 -6 70 vhcurveto
          232 hlineto
          70 21 6 58 hvcurveto
          -125 529 rmoveto
          -486 -164 486 vlineto
          endchar
        </CharString>
        <CharString name=".null">
          -500 endchar
        </CharString>
        <CharString name="A">
          -55 callgsubr
          -100 callgsubr
          endchar
        </CharString>
        <CharString name="AE">
          300 0 144 26 132 -14 132 136 144 hstemhm
          42 136 207 144 hintmask 11011100
          42 253 rmoveto
          -88 callsubr
          207 -55 vlineto
          -57 0 -58 75 vhcurveto
          188 hlineto
          52 63 2 -37 callgsubr
          hlineto
          hintmask 10111100
          144 63 vlineto
          54 58 0 66 66 -58 0 -54 hvcurveto
          -63 136 -17 callsubr
          68 -62 2 -53 hvcurveto
          -258 hlineto
          -74 -44 -44 -50 -28 hvcurveto
          -65 -116 -72 -122 -65 -115 rrcurveto
          332 317 rmoveto
          11 hlineto
          hintmask 11011100
          -268 -159 vlineto
          endchar
        </CharString>
        <CharString name="Aacute">
          -55 callgsubr
          245 -20 -100 callgsubr
          -321 595 -102 callgsubr
        </CharString>
        <CharString name="Acircumflex">
          -65 callsubr
          23 callgsubr
          -100 callgsubr
          -191 677 -107 callgsubr
          endchar
        </CharString>
        <CharString name="Adieresis">
          -55 callgsubr
          70 -3 callgsubr
          40 136 -81 -36 callsubr
          -79 139 hintmask 11111001
          -104 callgsubr
          hintmask 11110110
          -264 573 -98 callsubr
        </CharString>
        <CharString name="Agrave">
          -55 callgsubr
          246 -20 -100 callgsubr
          -256 664 -99 callsubr
        </CharString>
        <CharString name="Amacron">
          -55 callgsubr
          110 112 -100 callgsubr
          -337 649 -71 callsubr
        </CharString>
        <CharString name="Aring">
          -55 callgsubr
          70 7 callsubr
          hstemhm
          40 136 -14 7 callsubr
          -15 139 hintmask 1111110010000000
          -104 callgsubr
          hintmask 1111101100000000
          -177 612 -53 callgsubr
        </CharString>
        <CharString name="Atilde">
          -55 callgsubr
          227 -20 -43 callsubr
          255 787 -106 callsubr
          16 -217 -105 callgsubr
          endchar
        </CharString>
        <CharString name="B">
          52 0 118 188 106 170 118 hstemhm
          60 152 141 143 -127 127 -127 152 hintmask 11110010
          136 -11 callsubr
          -471 vlineto
          -58 0 -57 76 vhcurveto
          164 hlineto
          0 221 8 callgsubr
          33 -4 99 -119 34 vhcurveto
          hintmask 11110100
          14 5 84 45 93 vvcurveto
          121 -96 62 -119 vhcurveto
          -394 vmoveto
          0 88 0 -98 vvcurveto
          -90 -84 24 callsubr
          -73 188 hlineto
          60 276 rmoveto
          hintmask 11111000
          0 81 0 -90 vvcurveto
          -80 -77 24 callsubr
          -64 170 hlineto
          endchar
        </CharString>
        <CharString name="C">
          18 callgsubr
          9 callsubr
          278 704 rmoveto
          -61 callgsubr
          -47 callsubr
          vhcurveto
          endchar
        </CharString>
        <CharString name="CR">
          endchar
        </CharString>
        <CharString name="Ccaron">
          18 callgsubr
          242 -20 9 callsubr
          420 856 -103 callsubr
          -47 -192 rmoveto
          -47 callsubr
          hvcurveto
          -61 callgsubr
          vhcurveto
          endchar
        </CharString>
        <CharString name="Ccedilla">
          55 4 callgsubr
          13 173 -117 117 459 130 hstemhm
          45 168 -70 89 72 98 -47 168 hintmask 1001110010000000
          278 115 rmoveto
          -65 0 77 0 hvcurveto
          317 -40 callgsubr
          65 65 -47 callsubr
          vhcurveto
          -20 callsubr
          -178 147 -26 59 -3 vhcurveto
          -6 -12 -2 -8 -6 vvcurveto
          hintmask 1010101100000000
          -44 callsubr
          hintmask 0110101100000000
          -62 callgsubr
          6 11 rlineto
          hintmask 1001110010000000
          126 15 85 83 132 vvcurveto
          -29 callsubr
          vhcurveto
          endchar
        </CharString>
        <CharString name="D">
          47 0 119 464 117 hstem
          67 152 142 143 vstem
          143 -11 callsubr
          -471 vlineto
          -35 callgsubr
          -4 -117 rmoveto
          0 77 0 -89 vvcurveto
          16 callgsubr
          464 hlineto
          endchar
        </CharString>
        <CharString name="E">
          -6 callsubr
          -70 callsubr
          endchar
        </CharString>
        <CharString name="Eacute">
          -76 callgsubr
          -182 148 -102 callgsubr
        </CharString>
        <CharString name="Ecircumflex">
          -26 callsubr
          0 130 0 148 7 callgsubr
          70 152 hintmask 11101110
          -93 callsubr
          hvcurveto
          hintmask 11010110
          68 -62 6 -53 vhcurveto
          -40 230 -99 callgsubr
          hintmask 11001110
          -57 callsubr
        </CharString>
        <CharString name="Edieresis">
          -29 callgsubr
          50 -3 callgsubr
          70 152 65 152 -152 169 hintmask 11111010
          -87 callsubr
          -110 126 rmoveto
          -101 callsubr
          hintmask 11111100
          208 hmoveto
          -101 callsubr
          endchar
        </CharString>
        <CharString name="Egrave">
          -76 callgsubr
          -117 216 -99 callsubr
        </CharString>
        <CharString name="Emacron">
          -6 callsubr
          90 112 -70 callsubr
          -185 202 -71 callsubr
        </CharString>
        <CharString name="Eth">
          63 0 119 178 122 164 117 hstemhm
          -9 242 -152 152 -152 250 44 143 hintmask 11101010
          157 -11 callsubr
          -167 -18 vlineto
          hintmask 11110010
          -73 callgsubr
          hintmask 11101010
          18 -182 hlineto
          -35 callgsubr
          73 -206 rmoveto
          16 callgsubr
          178 26 hlineto
          hintmask 11100110
          -81 callgsubr
          hintmask 11110010
          -26 164 65 hlineto
          0 77 0 -89 vvcurveto
          endchar
        </CharString>
        <CharString name="Euro">
          63 -3 5 callgsubr
          34 81 48 81 35 214 -127 127 hstemhm
          3 249 -138 138 hintmask 10111001
          49 374 rmoveto
          65 -48 -65 hlineto
          hintmask 10111010
          -23 -23 -3 -39 -34 23 -5 23 hvcurveto
          hintmask 01111001
          65 hlineto
          -193 1 128 -55 108 hhcurveto
          82 127 49 102 33 -18 30 -41 -27 -25 -15 -32 -16 hvcurveto
          hintmask 10110110
          -15 -8 -25 -25 -51 hhcurveto
          -77 -20 54 52 hvcurveto
          15 129 vlineto
          21 25 5 34 39 -25 3 -21 hvcurveto
          -129 48 129 hlineto
          21 25 7 33 39 -25 2 -21 hvcurveto
          -129 18 hlineto
          51 20 53 77 51 25 -25 -15 8 vhcurveto
          hintmask 10111001
          -32 16 25 -15 27 hhcurveto
          41 18 30 33 102 -127 49 -82 -108 -129 -55 -194 hvcurveto
          -65 hlineto
          hintmask 10111010
          -23 -23 -2 -39 -33 23 -7 23 hvcurveto
          endchar
        </CharString>
        <CharString name="F">
          -31 21 -21 274 148 130 148 21 callsubr
          146 -8 callgsubr
          -76 0 -58 -57 hvcurveto
          -470 vlineto
          -58 0 -57 76 75 1 57 58 vhcurveto
          159 63 vlineto
          54 61 2 72 72 -63 2 -52 hvcurveto
          -63 130 119 hlineto
          54 61 6 68 68 -61 6 -54 hvcurveto
          endchar
        </CharString>
        <CharString name="G">
          78 -4 116 461 131 hstemhm
          53 168 86 229 vstemhm
          536 259 rmoveto
          56 -39 3 -9 vhcurveto
          -130 hlineto
          0 -51 0 -51 vvcurveto
          -46 51 -4 0 vhcurveto
          48 hlineto
          -54 -21 -33 -51 -53 hhcurveto
          -45 -33 35 42 hvcurveto
          320 -40 callgsubr
          64 65 vhcurveto
          hintmask 11110000
          63 14 -43 -72 -45 61 -4 28 80 0 42 20 70 -25 163 -221 hvcurveto
          0 -233 0 -220 vvcurveto
          -280 vlineto
          -200 187 -8 37 73 48 33 47 32 vhcurveto
          -30 vlineto
          -18 6 -32 50 46 4 33 17 vhcurveto
          endchar
        </CharString>
        <CharString name="H">
          83 21 -21 281 147 272 -20 hstem
          73 152 137 -16 callgsubr
          73 -36 callgsubr
          70 70 6 57 58 vhcurveto
          166 137 -166 vlineto
          -58 6 -57 70 70 6 -49 callsubr
          -70 -70 -13 callgsubr
          -157 -137 157 vlineto
          57 -6 58 -70 -70 -13 callgsubr
          endchar
        </CharString>
        <CharString name="I">
          -167 21 -21 700 -77 callgsubr
          endchar
        </CharString>
        <CharString name="Iacute">
          -54 callgsubr
          -5 263 -102 callgsubr
        </CharString>
        <CharString name="Icircumflex">
          -167 21 -21 700 50 197 -77 callgsubr
          126 345 -107 callgsubr
          endchar
        </CharString>
        <CharString name="Idieresis">
          -4 callgsubr
          70 -3 callgsubr
          -13 152 -55 166 -55 152 hintmask 11101000
          -79 callsubr
          hintmask 11110100
          55 241 -98 callsubr
        </CharString>
        <CharString name="Igrave">
          -54 callgsubr
          53 331 -99 callsubr
        </CharString>
        <CharString name="J">
          63 -4 130 432 142 hstem
          23 168 142 157 vstem
          268 -4 rmoveto
          22 200 0 209 hvcurveto
          380 vlineto
          57 -8 58 -76 vhcurveto
          -204 hlineto
          -53 -60 -6 -66 -64 60 -6 53 hvcurveto
          131 -367 hlineto
          0 0 -65 -65 -63 -14 44 72 46 -61 4 -27 -80 0 -43 -20 -70 24 -163 221 vhcurveto
          endchar
        </CharString>
        <CharString name="K">
          71 17 -21 25 -45 callsubr
          hstemhm
          70 152 133 152 -152 177 hintmask 01111000
          70 -36 callgsubr
          69 71 6 57 58 vhcurveto
          168 56 vlineto
          64 13 -44 -58 hvcurveto
          -103 vlineto
          hintmask 10110100
          -55 52 -27 44 42 39 15 48 7 0 12 -13 15 vhcurveto
          hintmask 01111000
          -5 6 -7 4 7 vvcurveto
          71 vlineto
          144 -92 26 0 vhcurveto
          90 213 rlineto
          10 23 6 26 17 vvcurveto
          45 -39 25 -39 -40 -19 -35 -37 -16 vhcurveto
          -31 -70 -58 -152 0 vvcurveto
          -57 180 hlineto
          57 -6 57 -71 -69 -6 1 callgsubr
        </CharString>
        <CharString name="L">
          -16 0 147 553 -20 hstem
          89 155 vstem
          89 74 rmoveto
          -68 41 -6 70 vhcurveto
          142 hlineto
          55 56 6 68 67 -56 6 -55 hvcurveto
          -98 438 hlineto
          57 -3 58 -76 -70 -13 callgsubr
          endchar
        </CharString>
        <CharString name="M">
          297 -45 callgsubr
          78 142 353 142 vstem
          402 162 rmoveto
          37 16 32 27 10 hvcurveto
          94 274 rlineto
          14 -417 hlineto
          -42 6 -36 61 69 6 36 42 vhcurveto
          508 vlineto
          57 0 57 -75 vhcurveto
          -73 hlineto
          -66 1 -1 -253 -83 hvcurveto
          -16 -50 rlineto
          -12 hlineto
          -13 40 rlineto
          264 -89 -1 0 -67 hhcurveto
          -68 hlineto
          -75 -4 callsubr
          -508 vlineto
          -42 6 -36 69 61 6 36 42 vhcurveto
          417 13 vlineto
          95 -274 rlineto
          -27 10 16 -32 38 hhcurveto
          endchar
        </CharString>
        <CharString name="N">
          180 -45 callgsubr
          74 142 254 141 vstem
          299 638 rmoveto
          -39 callsubr
          12 vlineto
          151 -41 callgsubr
          -415 -12 vlineto
          endchar
        </CharString>
        <CharString name="Ntilde">
          180 -58 callsubr
          228 -20 hstem
          74 142 254 141 vstem
          470 622 rmoveto
          -415 -16 vlineto
          -155 431 rlineto
          -39 callsubr
          16 vlineto
          147 -41 callgsubr
          -125 166 -106 callsubr
          endchar
        </CharString>
        <CharString name="O">
          64 -40 callsubr
          -31 callsubr
          52 502 -100 callsubr
        </CharString>
        <CharString name="Oacute">
          -27 callsubr
          193 848 -106 callgsubr
          -253 -414 -100 callsubr
        </CharString>
        <CharString name="Ocircumflex">
          62 -40 callsubr
          243 -19 callgsubr
          326 930 -107 callgsubr
          -369 -338 -100 callsubr
        </CharString>
        <CharString name="Odieresis">
          62 -40 callsubr
          46 -3 callgsubr
          52 166 -117 -36 callsubr
          -112 164 hintmask 11101100
          253 -75 callgsubr
          hintmask 11110010
          -409 -324 -100 callsubr
        </CharString>
        <CharString name="Ograve">
          -27 callsubr
          259 916 -105 callsubr
          -319 -346 -100 callsubr
        </CharString>
        <CharString name="Oslash">
          64 0 123 448 129 hstem
          52 167 129 165 vstem
          52 498 rmoveto
          -291 -78 callgsubr
          291 -78 callsubr
          232 -375 rmoveto
          -45 -14 30 19 -4 hvcurveto
          127 219 rlineto
          -203 -40 callgsubr
          -65 -64 vhcurveto
          448 vmoveto
          44 13 -29 -19 5 hvcurveto
          -127 -219 rlineto
          202 -40 callgsubr
          65 65 vhcurveto
          endchar
        </CharString>
        <CharString name="Otilde">
          62 -40 callsubr
          203 -19 callgsubr
          255 787 -106 callsubr
          -203 -285 -100 callsubr
        </CharString>
        <CharString name="P">
          41 21 -21 276 119 187 118 hstem
          71 152 158 -16 callgsubr
          287 276 rmoveto
          154 92 74 142 208 -222 0 0 hvcurveto
          -165 hlineto
          -75 -4 callsubr
          -472 vlineto
          -57 0 -57 75 77 0 57 57 vhcurveto
          162 vlineto
          68 119 rmoveto
          -68 187 73 hlineto
          0 85 0 -90 vvcurveto
          -97 -90 0 -16 callsubr
        </CharString>
        <CharString name="Q">
          78 -34 -21 51 123 455 130 hstem
          61 -28 callgsubr
          61 501 rmoveto
          -298 -67 callgsubr
          16 38 0 17 50 hvcurveto
          56 -53 rlineto
          -7 7 11 -8 23 hhcurveto
          11 14 3 12 13 hvcurveto
          13 13 4 15 10 vvcurveto
          23 -8 8 -9 9 vhcurveto
          -50 45 rlineto
          19 31 13 39 50 vvcurveto
          298 vlineto
          195 -184 8 -37 vhcurveto
          -17 hlineto
          -37 -186 -8 -195 hvcurveto
          166 -317 rmoveto
          326 vlineto
          0 1 64 65 64 1 -64 -77 callsubr
        </CharString>
        <CharString name="R">
          71 17 -21 25 -21 283 112 187 118 hstemhm
          71 151 133 151 -126 151 hintmask 01111100
          71 116 rmoveto
          -59 0 -57 75 76 0 57 59 vhcurveto
          167 56 vlineto
          64 13 -42 -59 hvcurveto
          -106 vlineto
          hintmask 10111010
          -52 52 -28 44 40 40 17 46 7 0 12 -16 16 vhcurveto
          hintmask 01111100
          -4 4 -5 5 8 vvcurveto
          71 vlineto
          87 -54 41 -47 18 vhcurveto
          hintmask 01111010
          111 32 15 100 33 vvcurveto
          207 -220 24 callsubr
          -165 hlineto
          -75 -4 callsubr
          219 -191 rmoveto
          -68 187 72 hlineto
          0 86 0 -89 vvcurveto
          -98 -90 0 -16 callsubr
        </CharString>
        <CharString name="S">
          -15 callgsubr
          20 callgsubr
          hintmask 10011100
          199 524 2 callgsubr
          hintmask 10101100
          -63 callgsubr
          hintmask 01101100
          -56 callgsubr
        </CharString>
        <CharString name="Scaron">
          -15 callgsubr
          242 -20 20 callgsubr
          hintmask 10011110
          408 856 -103 callsubr
          -114 -242 2 callgsubr
          hintmask 10101110
          -63 callgsubr
          hintmask 01101110
          -56 callgsubr
        </CharString>
        <CharString name="T">
          -9 21 -21 558 142 hstem
          170 -16 callgsubr
          119 -8 callgsubr
          -53 -61 -3 -68 -67 61 -4 53 hvcurveto
          51 -444 hlineto
          -57 0 -57 76 76 0 57 57 vhcurveto
          444 51 vlineto
          53 61 4 67 68 -61 3 -53 hvcurveto
          endchar
        </CharString>
        <CharString name="Thorn">
          65 0 217 -117 5 callsubr
          -117 218 hstemhm
          90 4 callsubr
          hintmask 10101100
          90 114 rmoveto
          13 callsubr
          70 vlineto
          hintmask 01101100
          -39 callgsubr
          71 vlineto
          hintmask 10011100
          -1 callgsubr
          -296 -55 callsubr
        </CharString>
        <CharString name="U">
          104 -4 118 586 -38 callgsubr
          71 205 -96 callgsubr
        </CharString>
        <CharString name="Uacute">
          -23 callsubr
          243 848 -106 callgsubr
          -284 -711 -96 callgsubr
        </CharString>
        <CharString name="Ucircumflex">
          -19 callsubr
          50 197 -38 callgsubr
          347 930 -107 callgsubr
          -371 -635 -96 callgsubr
        </CharString>
        <CharString name="Udieresis">
          -5 callsubr
          70 -3 callgsubr
          71 166 -114 -36 callsubr
          -114 166 hintmask 11101100
          275 -75 callgsubr
          hintmask 11110010
          -412 -621 -96 callgsubr
        </CharString>
        <CharString name="Ugrave">
          -23 callsubr
          286 916 -105 callsubr
          -327 -643 -96 callgsubr
        </CharString>
        <CharString name="V">
          -45 callgsubr
          422 -8 callgsubr
          -63 -13 -68 0 hvcurveto
          -27 -129 -59 -271 0 vvcurveto
          -16 hlineto
          0 -54 271 -32 129 vhcurveto
          0 -12 68 -64 -41 -33 -28 -36 -17 5 -15 0 vhcurveto
          142 -544 rlineto
          0 23 -60 66 vhcurveto
          16 hlineto
          66 23 60 0 hvcurveto
          45 176 52 191 45 177 rrcurveto
          0 5 15 17 vvcurveto
          36 -35 28 -39 vhcurveto
          endchar
        </CharString>
        <CharString name="W">
          333 -45 callgsubr
          421 697 rmoveto
          -37 -29 -28 -38 -9 hvcurveto
          -28 -124 -33 -152 -26 -123 rrcurveto
          -17 hlineto
          -87 399 rlineto
          0 -12 69 -61 -47 -23 -37 -29 -16 4 -14 0 vhcurveto
          135 -544 rlineto
          0 25 -60 66 vhcurveto
          17 hlineto
          66 18 60 0 hvcurveto
          22 94 26 105 21 94 rrcurveto
          17 hlineto
          70 -293 rlineto
          0 17 -60 66 vhcurveto
          17 hlineto
          66 23 60 0 hvcurveto
          137 544 rlineto
          0 4 14 16 vvcurveto
          29 -23 37 -47 -61 -12 -69 0 vhcurveto
          -29 -130 -30 -140 -28 -129 rrcurveto
          -17 hlineto
          -86 399 rlineto
          38 -8 -30 28 -37 hhcurveto
          endchar
        </CharString>
        <CharString name="X">
          73 -45 callgsubr
          194 348 rmoveto
          -140 -219 rlineto
          -14 -22 -12 -22 -21 vvcurveto
          -18 9 -18 27 -16 vhcurveto
          -8 14 14 -4 12 hhcurveto
          34 20 30 31 20 hvcurveto
          101 164 rlineto
          15 hlineto
          101 -164 rlineto
          -31 20 20 -30 35 hhcurveto
          13 13 4 8 15 hvcurveto
          26 16 8 18 18 vvcurveto
          21 -12 22 -14 22 vhcurveto
          -139 219 rlineto
          9 vlineto
          125 191 rlineto
          0 42 59 29 vvcurveto
          17 -9 19 -28 15 vhcurveto
          8 -15 -14 5 -12 hhcurveto
          -38 -23 -37 -35 -21 hvcurveto
          -93 -153 rlineto
          -15 hlineto
          -93 153 rlineto
          35 -21 -23 37 -38 hhcurveto
          -13 -13 -4 -8 -15 hvcurveto
          -26 -15 -9 -20 -18 vvcurveto
          -28 40 -59 0 vhcurveto
          126 -191 rlineto
          endchar
        </CharString>
        <CharString name="Y">
          -45 callgsubr
          176 151 vstem
          327 287 -93 callgsubr
        </CharString>
        <CharString name="Yacute">
          -58 callsubr
          245 -20 hstem
          176 151 vstem
          162 848 -106 callgsubr
          53 -629 -93 callgsubr
        </CharString>
        <CharString name="Ydieresis">
          -58 callsubr
          70 -3 callgsubr
          72 152 -48 151 -47 152 hintmask 11110100
          224 -75 callgsubr
          hintmask 11101000
          -105 -539 -93 callgsubr
        </CharString>
        <CharString name="Z">
          18 callsubr
          -71 callgsubr
          endchar
        </CharString>
        <CharString name="Zcaron">
          18 callsubr
          246 -20 -71 callgsubr
          98 307 -103 callsubr
          endchar
        </CharString>
        <CharString name="a">
          -58 callgsubr
          -1 -20 hstemhm
          42 -37 callsubr
          hintmask 11011000
          -82 callgsubr
          hintmask 10111000
          -98 callgsubr
          hintmask 11011000
          -91 callsubr
          endchar
        </CharString>
        <CharString name="aacute">
          -81 callsubr
          -24 458 -102 callgsubr
        </CharString>
        <CharString name="acircumflex">
          -58 callgsubr
          7 callgsubr
          42 -37 callsubr
          hintmask 11011100
          -104 callsubr
          114 540 -99 callgsubr
          hintmask 10111100
          -57 callsubr
        </CharString>
        <CharString name="acute">
          -141 572 -21 175 -20 hstem
          88 649 -102 callgsubr
        </CharString>
        <CharString name="adieresis">
          -58 callgsubr
          49 -3 callgsubr
          42 154 -121 -36 callsubr
          -131 152 hintmask 11110010
          -104 callsubr
          hintmask 11101100
          31 435 -98 callsubr
        </CharString>
        <CharString name="ae">
          224 0 100 -100 188 34 82 9 188 -99 99 hstemhm
          17 144 116 152 117 153 hintmask 10110111
          11 125 rmoveto
          -74 52 -51 142 67 59 7 50 33 vhcurveto
          -46 40 58 -11 52 hhcurveto
          51 134 24 114 hvcurveto
          hintmask 01110111
          17 -2 33 -67 -77 -7 -29 -18 vhcurveto
          hintmask 10110111
          -27 -26 -14 -29 -47 -15 42 32 vhcurveto
          48 vlineto
          218 11 50 39 58 vvcurveto
          23 vlineto
          54 -25 94 -178 -39 -59 -18 -37 -24 vhcurveto
          46 -26 -75 9 -50 hhcurveto
          -86 -118 -24 -114 -17 2 -33 67 77 7 29 18 hvcurveto
          hintmask 10101111
          27 16 15 41 37 13 -18 -24 vhcurveto
          -61 vlineto
          -28 -3 rlineto
          -118 -14 -120 -46 -111 vvcurveto
          543 211 rmoveto
          -26 -50 0 -75 -6 vhcurveto
          hintmask 10110111
          9 vlineto
          hintmask 10101111
          35 1 54 63 30 31 -18 -36 vhcurveto
          -277 -135 rmoveto
          -41 vlineto
          -44 -18 -28 -60 -21 -17 5 22 57 61 26 55 3 vhcurveto
          endchar
        </CharString>
        <CharString name="agrave">
          -81 callsubr
          31 526 -99 callsubr
        </CharString>
        <CharString name="amacron">
          -58 callgsubr
          88 112 hstemhm
          42 154 108 140 -140 152 hintmask 11110100
          -104 callsubr
          -35 510 -60 callsubr
          hintmask 11111000
          -48 callsubr
        </CharString>
        <CharString name="ampersand">
          148 0 130 -110 -21 593 112 hstemhm
          52 145 147 119 hintmask 10111000
          111 538 rmoveto
          -71 35 -30 32 -48 vhcurveto
          -67 -36 -59 -74 -76 vvcurveto
          -112 79 -91 134 77 56 35 39 29 vhcurveto
          hintmask 01111000
          -52 41 24 -23 26 hhcurveto
          13 15 6 11 13 hvcurveto
          16 13 8 16 14 vvcurveto
          24 -17 25 -20 24 vhcurveto
          -35 41 41 50 rlineto
          20 24 17 24 25 vvcurveto
          16 -7 15 -18 16 vhcurveto
          12 -15 -13 5 -13 hhcurveto
          -28 -24 -23 -27 -22 hvcurveto
          -26 -31 -67 78 rlineto
          77 53 30 60 58 vvcurveto
          108 -81 68 -98 -116 -57 -68 -98 vhcurveto
          231 -357 rmoveto
          hintmask 10111000
          -33 -29 -16 -18 -37 hhcurveto
          -23 -40 15 58 37 27 37 26 21 hvcurveto
          34 294 rmoveto
          40 20 -27 -33 -32 -19 -38 -36 -21 hvcurveto
          -50 60 0 24 8 vvcurveto
          29 16 30 29 vhcurveto
          endchar
        </CharString>
        <CharString name="aring">
          -58 callgsubr
          50 7 callsubr
          hstemhm
          42 154 -57 57 108 64 -64 152 hintmask 11111001
          -104 callsubr
          115 475 -47 callgsubr
          hintmask 11110110
          -53 callsubr
        </CharString>
        <CharString name="asciicircum">
          -12 402 21 callgsubr
          282 561 -107 callgsubr
          endchar
        </CharString>
        <CharString name="asciitilde">
          -41 63 -21 157 -20 hstem
          211 79 -106 callsubr
          endchar
        </CharString>
        <CharString name="asterisk">
          97 103 -21 548 -20 hstem
          236 124 vstem
          158 522 rmoveto
          11 -15 -17 6 -14 hhcurveto
          -28 -29 -39 -29 -21 14 -18 23 -14 hvcurveto
          91 -55 rlineto
          -6 vlineto
          -89 -53 rlineto
          -24 -14 -15 -19 -21 vvcurveto
          -29 32 -39 26 14 16 6 12 18 vhcurveto
          70 48 5 -4 rlineto
          -92 vlineto
          -42 15 -28 48 46 15 28 42 vhcurveto
          92 vlineto
          5 4 71 -48 rlineto
          -12 18 16 -6 14 hhcurveto
          26 32 39 29 21 -15 19 -24 14 hvcurveto
          -89 53 rlineto
          6 vlineto
          91 55 rlineto
          23 14 14 18 21 vvcurveto
          29 -29 39 -28 -14 -16 -6 -11 -16 vhcurveto
          -74 -50 -5 4 rlineto
          82 vlineto
          46 -15 26 -46 -48 -15 -26 -46 vhcurveto
          -82 vlineto
          -6 -4 rlineto
          endchar
        </CharString>
        <CharString name="at">
          247 -48 43 48 52 -52 92 208 93 59 44 hstemhm
          66 45 89 121 85 119 86 42 hintmask 1101111110000000
          525 346 rmoveto
          46 -6 44 -53 -28 -32 -15 -52 vhcurveto
          31 -10 -24 35 -51 hhcurveto
          -57 -64 -35 -104 hvcurveto
          -114 vlineto
          -104 64 -35 57 51 24 35 31 10 vhcurveto
          -6 1 -7 1 -8 vhcurveto
          -35 6 29 -16 36 hhcurveto
          134 40 93 117 173 -67 119 -225 -240 -55 -147 -145 -245 154 -50 141 17 145 0 7 24 hvcurveto
          30 9 46 14 31 vvcurveto
          10 -7 7 -11 -3 -3 -1 -1 -3 vhcurveto
          -22 -8 -20 -18 -31 -4 rrcurveto
          -3 -21 -116 0 -25 hhcurveto
          -53 -197 2 250 183 106 65 144 180 70 -88 -160 -90 -28 -62 -37 -20 -1 18 15 hvcurveto
          -204 159 rmoveto
          28 2 28 32 41 10 -59 -33 vhcurveto
          hintmask 1011111110000000
          -80 -1 -9 -36 -41 hhcurveto
          -32 -2 29 28 hvcurveto
          endchar
        </CharString>
        <CharString name="atilde">
          -58 callgsubr
          207 -94 callgsubr
          40 397 -106 callsubr
          endchar
        </CharString>
        <CharString name="b">
          21 0 5 callsubr
          201 -20 hstem
          60 4 callsubr
          vstem
          60 113 rmoveto
          -56 3 -57 72 73 4 57 27 vhcurveto
          -39 callgsubr
          171 vlineto
          -1 callgsubr
          -396 -55 callsubr
        </CharString>
        <CharString name="backslash">
          -47 8 -21 717 -20 hstem
          111 704 rmoveto
          -14 -11 -2 -5 -13 hvcurveto
          -26 -11 -10 -15 -2 -16 rrcurveto
          -20 5 -15 6 -13 vhcurveto
          243 -570 rlineto
          -22 10 15 -28 31 hhcurveto
          8 9 2 5 11 hvcurveto
          27 12 11 15 2 16 rrcurveto
          19 -5 13 -6 15 vhcurveto
          -244 571 -9 22 -12 24 -26 3 rlinecurve
          endchar
        </CharString>
        <CharString name="bar">
          -198 -59 -21 863 -20 hstem
          90 122 vstem
          212 20 rmoveto
          691 -67 callsubr
          -719 -5 callgsubr
        </CharString>
        <CharString name="braceleft">
          14 callsubr
          94 227 -140 140 hintmask 11010000
          397 783 rmoveto
          -121 -95 -60 -121 hvcurveto
          -108 vlineto
          -63 -28 -15 -25 -13 vhcurveto
          hintmask 11100000
          -19 -10 -15 -9 -26 vvcurveto
          -26 15 -9 19 -11 vhcurveto
          hintmask 11010000
          25 -13 28 -15 -62 vvcurveto
          -94 vlineto
          -208 194 0 0 71 20 26 32 32 -19 26 -46 vhcurveto
          0 -80 0 83 vvcurveto
          88 vlineto
          92 -47 54 -15 5 vhcurveto
          15 5 47 53 93 vvcurveto
          69 vlineto
          91 80 -2 0 46 19 26 32 32 -19 26 -50 vhcurveto
          endchar
        </CharString>
        <CharString name="braceright">
          14 callsubr
          185 140 -140 227 hintmask 11010000
          412 358 rmoveto
          26 -15 9 -19 10 vhcurveto
          hintmask 11100000
          -24 13 -29 15 63 vvcurveto
          108 vlineto
          121 -94 60 -121 -51 -19 -26 -32 -32 19 -26 47 vhcurveto
          0 79 2 -91 vvcurveto
          -69 vlineto
          -93 48 -53 15 -5 vhcurveto
          -15 -5 -48 -54 -92 vvcurveto
          -88 vlineto
          -83 -79 0 0 -47 -19 -26 -32 -32 20 -26 71 vhcurveto
          0 194 8 callgsubr
          94 vlineto
          62 29 15 24 13 vhcurveto
          hintmask 11010000
          19 11 15 9 26 vvcurveto
          endchar
        </CharString>
        <CharString name="bracketleft">
          10 callgsubr
          120 122 -122 248 hintmask 11100000
          242 123 rmoveto
          457 54 vlineto
          hintmask 11010000
          14 callgsubr
          -103 hlineto
          -54 -19 -27 -47 hvcurveto
          -555 vlineto
          -57 31 -15 41 vhcurveto
          103 hlineto
          14 callgsubr
          endchar
        </CharString>
        <CharString name="bracketright">
          10 callgsubr
          71 247 -122 122 hintmask 11100000
          143 123 rmoveto
          11 callsubr
          103 hlineto
          41 31 15 57 hvcurveto
          555 vlineto
          47 -19 27 -54 vhcurveto
          -103 hlineto
          11 callsubr
          hintmask 11010000
          54 -457 hlineto
          endchar
        </CharString>
        <CharString name="breve">
          -69 550 71 -71 154 hstemhm
          60 100 111 96 hintmask 01110000
          318 704 rmoveto
          -35 -12 -15 -32 hvcurveto
          hintmask 10110000
          -17 -16 -19 -39 -41 -15 19 17 vhcurveto
          hintmask 01110000
          32 -12 15 -36 -37 -15 -15 -37 -92 124 -10 32 33 118 10 92 37 -15 15 -34 vhcurveto
          endchar
        </CharString>
        <CharString name="brokenbar">
          -167 -59 -21 863 -20 hstem
          104 122 vstem
          226 509 rmoveto
          202 -67 callsubr
          -230 -70 callgsubr
          -461 vmoveto
          201 -67 callsubr
          -229 -5 callgsubr
        </CharString>
        <CharString name="bullet">
          17 205 -21 259 -20 hstem
          388 315 rmoveto
          89 -42 39 -86 -84 -47 -39 -89 -89 47 -42 84 81 47 42 89 vhcurveto
          endchar
        </CharString>
        <CharString name="c">
          0 100 -20 callgsubr
          hstemhm
          42 152 115 156 hintmask 10011100
          194 328 12 callgsubr
          vhcurveto
          hintmask 01101100
          -57 callgsubr
          hintmask 10101100
          -14 callgsubr
          endchar
        </CharString>
        <CharString name="caron">
          -49 552 21 callgsubr
          356 638 -103 callsubr
          endchar
        </CharString>
        <CharString name="ccaron">
          0 100 -20 callgsubr
          247 -20 hstemhm
          42 152 115 156 hintmask 10011110
          2 callsubr
          hintmask 01101110
          -57 callgsubr
          hintmask 10011110
          -18 callsubr
          138 271 -103 callsubr
          endchar
        </CharString>
        <CharString name="ccedilla">
          -200 51 -51 125 13 162 -20 callgsubr
          hstemhm
          42 152 -74 89 72 98 -70 156 hintmask 1010011001000000
          2 callsubr
          hintmask 1001101010000000
          -59 callgsubr
          -126 91 -55 99 -5 vhcurveto
          -4 -8 rlineto
          -6 -10 -2 -8 -6 vvcurveto
          hintmask 1010100110000000
          -44 callsubr
          hintmask 0110100110000000
          -62 callgsubr
          10 18 rlineto
          hintmask 1001101001000000
          83 10 89 39 108 vvcurveto
          -24 callgsubr
          vhcurveto
          hintmask 1010011010000000
          -18 callsubr
          endchar
        </CharString>
        <CharString name="cedilla">
          -168 4 callgsubr
          13 106 hstemhm
          38 89 72 98 hintmask 10111000
          146 -4 rmoveto
          -6 -10 -2 -8 -6 vvcurveto
          -44 callsubr
          hintmask 01111000
          -62 callgsubr
          35 59 rlineto
          -61 hlineto
          endchar
        </CharString>
        <CharString name="cent">
          3 184 286 219 hstemhm
          41 152 -12 122 5 156 hintmask 11101000
          193 415 12 callgsubr
          -25 callgsubr
          vhcurveto
          hintmask 11011000
          56 -30 82 -130 18 vhcurveto
          37 -67 callsubr
          -39 vlineto
          hintmask 11101000
          -65 -13 -75 -42 -136 vvcurveto
          -117 vlineto
          hintmask 11011000
          -104 62 -56 78 -19 vhcurveto
          -19 -70 callgsubr
          16 vlineto
          80 12 81 40 104 vvcurveto
          -24 callgsubr
          -35 -3 -29 -59 vhcurveto
          hintmask 11101000
          -49 -5 52 21 hvcurveto
          endchar
        </CharString>
        <CharString name="circumflex">
          -65 555 21 callgsubr
          260 714 -107 callgsubr
          endchar
        </CharString>
        <CharString name="colon">
          -214 0 165 97 165 hstem
          62 165 vstem
          227 83 -90 callgsubr
          -1 262 -82 callsubr
        </CharString>
        <CharString name="comma">
          -201 -82 247 hstemhm
          67 165 vstemhm
          232 83 -46 callgsubr
          hintmask 11000000
          -87 callgsubr
          endchar
        </CharString>
        <CharString name="copyright">
          235 78 45 82 56 -56 136 58 144 -62 62 81 44 hstemhm
          68 47 140 83 67 80 129 44 hintmask 1011011111000000
          255 304 rmoveto
          -97 89 -2 19 71 51 43 70 1 0 22 -38 -38 -4 -10 -12 vhcurveto
          hintmask 1100111111000000
          -30 -6 -28 -31 -30 0 38 0 vhcurveto
          150 -40 callgsubr
          32 30 31 6 -23 -36 vhcurveto
          hintmask 1101011111000000
          -20 29 -3 13 38 0 21 10 34 -11 79 -106 vhcurveto
          0 -113 0 -107 vvcurveto
          359 -65 -68 callsubr
        </CharString>
        <CharString name="currency">
          96 83 135 -83 83 163 81 -81 134 hstemhm
          74 135 -83 83 162 82 -82 135 hintmask 10101010
          453 299 rmoveto
          25 -3 23 -6 19 vhcurveto
          33 33 rlineto
          hintmask 10011001
          -85 callgsubr
          -32 -32 rlineto
          hintmask 10101010
          6 -20 -23 3 -26 hhcurveto
          -26 -23 -3 -7 -20 hvcurveto
          -32 33 rlineto
          hintmask 10011010
          -85 callsubr
          32 -33 rlineto
          hintmask 10100110
          -6 -19 -3 -23 -25 vvcurveto
          -26 3 -23 6 -20 vhcurveto
          -31 -31 rlineto
          hintmask 10101010
          -84 callsubr
          32 31 rlineto
          hintmask 01101010
          -6 20 22 -3 26 hhcurveto
          25 23 3 6 20 hvcurveto
          32 -31 rlineto
          hintmask 10101001
          -84 callgsubr
          -33 32 rlineto
          hintmask 10101010
          6 19 4 23 26 vvcurveto
          -82 hmoveto
          -54 -30 -27 -51 -51 -30 27 54 57 30 25 51 54 27 -25 -57 vhcurveto
          endchar
        </CharString>
        <CharString name="d">
          10 0 5 callsubr
          201 -20 hstem
          41 -37 callsubr
          vstem
          455 113 rmoveto
          473 vlineto
          58 -8 56 -67 -70 -7 -56 -58 vhcurveto
          -171 vlineto
          -102 callsubr
          endchar
        </CharString>
        <CharString name="degree">
          -84 410 85 113 84 hstem
          64 86 112 85 vstem
          262 552 rmoveto
          -38 -20 -19 -35 -36 -21 19 38 38 21 18 36 36 19 -18 -38 vhcurveto
          85 hmoveto
          -17 callgsubr
          endchar
        </CharString>
        <CharString name="dieresis">
          -33 550 152 hstem
          48 -36 callsubr
          vstem
          200 626 -98 callsubr
        </CharString>
        <CharString name="divide">
          198 87 165 49 122 49 165 hstem
          270 165 cntrmask 11100000
          178 301 rmoveto
          377 hlineto
          -81 callgsubr
          -405 -21 callgsubr
          285 -131 -90 callgsubr
          -1 385 -82 callsubr
        </CharString>
        <CharString name="divisionslash">
          4 -45 callgsubr
          447 15 callgsubr
          35 -44 19 -28 -26 -14 -24 -21 -11 vhcurveto
          -2 callgsubr
          -29 5 32 -26 27 hhcurveto
          33 16 26 20 12 hvcurveto
          endchar
        </CharString>
        <CharString name="dollar">
          26 3 188 296 205 hstemhm
          71 145 -23 122 -19 145 hintmask 11101000
          344 374 rmoveto
          -33 15 -95 21 43 vvcurveto
          33 18 1 20 36 6 -17 -25 -36 45 -7 20 38 42 5 52 vhcurveto
          hintmask 11010000
          47 -27 60 -99 16 vhcurveto
          38 -67 callsubr
          -38 vlineto
          hintmask 11101000
          -72 -11 -50 -34 -73 vvcurveto
          -29 vlineto
          -74 61 -41 107 -44 vhcurveto
          6 -3 rlineto
          28 -11 32 -13 -25 vvcurveto
          -26 -16 -7 -21 -24 -22 13 24 51 -55 2 -13 -74 -3 -47 -13 vhcurveto
          -8 vlineto
          hintmask 11010000
          -22 8 -71 108 -25 vhcurveto
          -20 -70 callgsubr
          14 vlineto
          81 11 56 49 85 vvcurveto
          69 -13 33 -95 38 vhcurveto
          endchar
        </CharString>
        <CharString name="dotaccent">
          -213 571 165 hstem
          58 165 vstem
          223 654 -82 callsubr
        </CharString>
        <CharString name="dotlessi">
          -187 21 -21 500 -69 callsubr
          endchar
        </CharString>
        <CharString name="e">
          -46 callsubr
          -24 callsubr
          hintmask 01111100
          468 316 -90 callsubr
          hintmask 10111100
          -50 callsubr
        </CharString>
        <CharString name="eacute">
          -33 callsubr
          173 648 -106 callgsubr
          183 -400 -91 callgsubr
          endchar
        </CharString>
        <CharString name="ecircumflex">
          10 0 100 63 59 75 98 106 49 197 -20 -24 callsubr
          vstemhm
          295 730 -107 callgsubr
          78 -324 -90 callsubr
          -83 callgsubr
          hintmask 11111110
          -65 callgsubr
          endchar
        </CharString>
        <CharString name="edieresis">
          -46 callsubr
          49 152 23 callsubr
          -126 -36 callsubr
          -109 138 hintmask 1011101100000000
          224 626 -101 callgsubr
          36 -310 -49 callgsubr
          hintmask 0111110010000000
          -88 callgsubr
          hintmask 1011110010000000
          -50 callsubr
        </CharString>
        <CharString name="egrave">
          -33 callsubr
          230 716 -105 callsubr
          126 -332 -91 callgsubr
          endchar
        </CharString>
        <CharString name="eight">
          10 -4 121 210 94 156 127 hstem
          55 140 123 147 vstem
          195 172 rmoveto
          95 3 callsubr
          -95 -40 callgsubr
          -55 -60 -63 0 55 0 vhcurveto
          63 532 rmoveto
          -46 -157 -4 -184 hvcurveto
          -13 vlineto
          -83 22 -29 35 -20 vhcurveto
          -35 -20 -32 -29 -83 vvcurveto
          -55 vlineto
          -184 167 -4 46 47 160 4 184 vhcurveto
          55 vlineto
          83 -32 29 -35 20 vhcurveto
          35 20 22 29 83 vvcurveto
          13 vlineto
          184 -150 4 -47 vhcurveto
          -63 -228 rmoveto
          41 3 callsubr
          -41 -40 callgsubr
          -55 -60 -63 0 55 -16 callsubr
        </CharString>
        <CharString name="ellipsis">
          360 0 165 hstem
          75 165 108 165 108 165 cntrmask 01110000
          240 83 -90 callgsubr
          273 hmoveto
          -95 callgsubr
          273 hmoveto
          -95 callgsubr
          endchar
        </CharString>
        <CharString name="emacron">
          -46 callsubr
          87 112 -24 callsubr
          hintmask 01111110
          468 316 -91 callgsubr
          -46 403 -71 callsubr
        </CharString>
        <CharString name="emdash">
          353 241 24 callgsubr
          188 241 rmoveto
          503 hlineto
          -81 callgsubr
          -531 -21 callgsubr
          endchar
        </CharString>
        <CharString name="endash">
          -2 239 24 callgsubr
          170 239 -79 callgsubr
          endchar
        </CharString>
        <CharString name="equal">
          51 145 122 74 24 callgsubr
          192 341 -79 callgsubr
          26 -196 -79 callgsubr
          endchar
        </CharString>
        <CharString name="eth">
          32 -4 106 247 109 40 201 hstem
          58 154 117 145 vstem
          474 312 rmoveto
          79 -3 64 -12 75 vhcurveto
          30 5 rlineto
          34 6 9 18 19 vvcurveto
          20 -10 20 -33 -4 -4 0 -1 -4 vhcurveto
          -45 -8 rlineto
          61 -31 -51 29 -76 hhcurveto
          -19 -31 -7 -30 -35 26 1 33 -12 hvcurveto
          15 -6 16 -8 10 -10 -66 -11 rcurveline
          -21 -3 -17 -19 -21 vvcurveto
          -21 17 -19 28 3 4 0 1 3 vhcurveto
          78 13 rlineto
          4 -22 1 -10 -20 vvcurveto
          -20 -2 -56 0 vhcurveto
          54 -16 -44 20 -52 hhcurveto
          -57 -129 -23 -172 hvcurveto
          -68 vlineto
          -196 164 -3 41 74 137 13 200 vhcurveto
          -204 -107 rmoveto
          -58 0 47 12 hvcurveto
          129 -40 callgsubr
          59 58 46 13 -43 -36 vhcurveto
          -109 -40 callgsubr
          -59 -59 vhcurveto
          endchar
        </CharString>
        <CharString name="exclam">
          -96 -1 165 535 -20 hstemhm
          113 140 -140 165 hintmask 11010000
          278 464 rmoveto
          123 vlineto
          56 -14 56 -68 -68 -15 -55 -56 vhcurveto
          -122 vlineto
          26 -162 rlineto
          -42 6 -42 51 vhcurveto
          hintmask 11100000
          51 6 42 42 hvcurveto
          hintmask 11010000
          25 -222 -82 callsubr
        </CharString>
        <CharString name="exclamdown">
          -96 20 -21 535 165 hstemhm
          126 165 -140 140 hintmask 11100000
          126 246 rmoveto
          -135 vlineto
          -56 14 -56 68 68 15 55 56 vhcurveto
          134 vlineto
          -26 162 rlineto
          42 -6 42 -51 vhcurveto
          hintmask 11010000
          -51 -6 -42 -42 hvcurveto
          hintmask 11100000
          -25 210 rmoveto
          -25 callsubr
          56 -30 27 -53 -52 -30 -27 -56 vhcurveto
          endchar
        </CharString>
        <CharString name="f">
          -125 21 -21 378 122 72 128 hstem
          99 153 vstem
          252 500 rmoveto
          21 vlineto
          24 2 27 18 vhcurveto
          11 8 -7 10 hhcurveto
          24 37 15 48 52 -50 20 -60 -141 -12 -82 -118 hvcurveto
          -28 hlineto
          -37 -34 -3 -59 -54 34 -6 37 hvcurveto
          28 -265 hlineto
          -58 6 -55 68 71 8 55 58 vhcurveto
          265 30 vlineto
          -81 callgsubr
          endchar
        </CharString>
        <CharString name="five">
          13 -4 5 callgsubr
          114 134 103 139 hstemhm
          346 138 hintmask 10111000
          203 540 rmoveto
          21 1 9 0 11 hhcurveto
          120 hlineto
          50 57 6 64 63 -57 6 -50 hvcurveto
          -200 hlineto
          -46 -12 -41 -29 -3 hvcurveto
          -29 -275 rlineto
          -46 33 -12 31 vhcurveto
          45 40 27 43 hhcurveto
          50 50 -30 -65 12 callsubr
          hvcurveto
          hintmask 01111000
          3 callgsubr
          hvcurveto
          hintmask 10111000
          -8 1 -8 2 -8 vhcurveto
          -86 22 105 -41 79 hhcurveto
          11 callgsubr
          169 -131 45 -72 -25 -36 -4 -10 -27 vhcurveto
          endchar
        </CharString>
        <CharString name="four">
          1 21 -21 168 144 388 -20 hstem
          312 141 vstem
          382 463 rmoveto
          -64 -6 -38 -45 hvcurveto
          -68 -105 vlineto
          -4 4 rlineto
          0 69 245 1 vvcurveto
          3 11 13 35 32 vvcurveto
          32 -13 28 -48 -67 -4 -47 -50 -14 vhcurveto
          -101 -351 rlineto
          -2 -8 -2 -8 -8 vvcurveto
          -31 22 -29 82 vhcurveto
          171 -89 hlineto
          -44 8 -35 63 64 6 37 46 vhcurveto
          296 vlineto
          45 -6 39 -65 vhcurveto
          endchar
        </CharString>
        <CharString name="fourinferior">
          -38 72 124 -124 223 hstemhm
          253 60 hintmask 10100000
          281 196 rmoveto
          -54 callsubr
          hintmask 01100000
          -63 callsubr
          hintmask 10100000
          -44 callgsubr
          endchar
        </CharString>
        <CharString name="foursuperior">
          -174 492 116 -116 209 hstemhm
          187 56 hintmask 10100000
          213 608 rmoveto
          -23 -3 -16 -18 hvcurveto
          -27 -41 vlineto
          5 28 14 47 6 25 rrcurveto
          2 8 3 9 8 vvcurveto
          hintmask 01100000
          15 -7 14 -17 -19 -6 -11 -18 -5 vhcurveto
          -43 -152 -1 -4 -3 vvcurveto
          -12 9 -9 33 vhcurveto
          67 -38 hlineto
          hintmask 10100000
          -17 4 -14 25 24 3 16 16 vhcurveto
          117 vlineto
          20 -3 16 -27 vhcurveto
          endchar
        </CharString>
        <CharString name="fraction">
          -30 332 57 hstem
          -26 callgsubr
          9 callgsubr
          endchar
        </CharString>
        <CharString name="g">
          21 -200 99 -99 163 37 117 266 117 hstemhm
          46 155 108 152 hintmask 10111100
          461 387 rmoveto
          56 -3 57 -72 -73 -4 -57 -27 vhcurveto
          39 -12 -31 45 -65 hhcurveto
          -73 -82 -45 -132 hvcurveto
          -145 vlineto
          -134 82 17 callsubr
          -112 vlineto
          -21 -5 -52 -49 -27 -16 5 14 -5 vhcurveto
          hintmask 01111100
          17 -6 1 28 -77 hhcurveto
          -64 -6 -28 -16 hvcurveto
          -96 7 105 -23 94 hhcurveto
          38 162 6 179 hvcurveto
          -260 325 -9 callsubr
          -76 -52 -41 -3 37 35 vhcurveto
          endchar
        </CharString>
        <CharString name="germandbls">
          65 -106 228 -122 122 460 108 hstemhm
          65 151 54 209 -133 133 -106 151 hintmask 10110100
          275 690 rmoveto
          -142 -68 -51 -93 hvcurveto
          -537 vlineto
          -58 0 -57 75 75 1 58 57 vhcurveto
          526 vlineto
          47 41 0 19 35 35 -21 -59 vhcurveto
          hintmask 10111000
          -78 -76 47 -94 vvcurveto
          hintmask 01110010
          -79 103 36 -126 vvcurveto
          -37 -1 -49 -30 vhcurveto
          0 -15 11 -18 -32 -32 -18 -54 vhcurveto
          -51 3 36 -10 49 hhcurveto
          93 98 47 161 37 -3 103 -119 26 hvcurveto
          5 vlineto
          hintmask 10111000
          19 9 58 32 87 vvcurveto
          130 -85 53 -119 vhcurveto
          endchar
        </CharString>
        <CharString name="grave">
          -151 572 -21 175 -20 hstem
          155 717 -99 callsubr
        </CharString>
        <CharString name="greater">
          -35 84 0 callsubr
          354 249 -92 callsubr
          endchar
        </CharString>
        <CharString name="guillemotleft">
          263 -8 callsubr
          251 97 rmoveto
          -97 callgsubr
          438 -155 rmoveto
          hintmask 01010000
          -97 callgsubr
          endchar
        </CharString>
        <CharString name="guillemotright">
          268 -8 callsubr
          648 253 -92 callsubr
          -124 157 rmoveto
          13 13 17 17 21 vvcurveto
          19 -14 15 -17 17 vhcurveto
          -157 156 rlineto
          hintmask 01010000
          -94 callsubr
          endchar
        </CharString>
        <CharString name="guilsinglleft">
          18 83 0 callsubr
          397 248 -92 callsubr
          endchar
        </CharString>
        <CharString name="guilsinglright">
          12 84 0 callsubr
          279 93 rmoveto
          -97 callgsubr
          endchar
        </CharString>
        <CharString name="h">
          21 21 -21 381 119 200 -20 hstem
          61 -43 callgsubr
          478 321 rmoveto
          134 -80 45 -74 -64 -33 -45 -39 -12 vhcurveto
          171 vlineto
          56 -7 57 -71 -69 -7 -57 -56 vhcurveto
          -474 vlineto
          -56 7 -57 69 71 7 -22 callgsubr
          95 vlineto
          98 12 75 53 41 3 -36 -35 vhcurveto
          -197 -21 callsubr
          endchar
        </CharString>
        <CharString name="hungarumlaut">
          40 550 219 hstem
          240 665 -66 callgsubr
          249 72 -66 callgsubr
          endchar
        </CharString>
        <CharString name="hyphen">
          -17 240 24 callgsubr
          154 240 -79 callgsubr
          endchar
        </CharString>
        <CharString name="i">
          22 callsubr
          548 152 hstem
          77 -16 callgsubr
          77 -86 callsubr
          153 236 rmoveto
          -101 callsubr
          endchar
        </CharString>
        <CharString name="iacute">
          -51 callgsubr
          -6 260 -102 callgsubr
        </CharString>
        <CharString name="icircumflex">
          -177 21 -21 500 23 callgsubr
          hstem
          86 -16 callgsubr
          86 -86 callsubr
          118 342 -107 callgsubr
          endchar
        </CharString>
        <CharString name="idieresis">
          22 callsubr
          550 -3 callgsubr
          -28 152 -48 152 -48 152 hintmask 11010000
          76 -86 callsubr
          hintmask 11101000
          48 238 -98 callsubr
        </CharString>
        <CharString name="igrave">
          -51 callgsubr
          49 328 -99 callsubr
        </CharString>
        <CharString name="j">
          -187 -200 140 610 151 hstem
          88 -16 callgsubr
          88 15 rmoveto
          -39 -1 -36 -41 -49 -19 -14 -49 -53 51 -24 59 144 8 91 124 vhcurveto
          373 vlineto
          58 -8 54 -67 -69 -8 -54 -58 vhcurveto
          152 237 rmoveto
          52 -24 24 -51 -48 -29 -24 -52 -50 29 -25 48 47 28 25 50 vhcurveto
          endchar
        </CharString>
        <CharString name="k">
          7 20 -21 22 -45 callsubr
          hstemhm
          75 142 hintmask 01110000
          75 112 rmoveto
          -56 3 -56 68 69 2 56 56 vhcurveto
          84 28 vlineto
          56 -119 rlineto
          hintmask 10110000
          -30 14 24 -48 44 hhcurveto
          35 42 23 43 22 -10 25 -12 24 hvcurveto
          -98 187 90 106 rlineto
          9 11 5 13 13 vvcurveto
          41 -36 26 -34 -17 -17 -6 -14 -12 vhcurveto
          -103 -121 rlineto
          -8 197 hlineto
          56 -2 55 -69 -68 -3 -55 -56 vhcurveto
          endchar
        </CharString>
        <CharString name="l">
          -207 -45 callgsubr
          70 152 vstem
          70 112 rmoveto
          -56 8 -56 68 69 7 56 56 vhcurveto
          477 vlineto
          56 -7 55 -69 -68 -8 -55 -56 vhcurveto
          endchar
        </CharString>
        <CharString name="less">
          -35 84 0 callsubr
          268 93 rmoveto
          -97 callgsubr
          endchar
        </CharString>
        <CharString name="logicalnot">
          246 251 -21 199 24 callgsubr
          511 122 vstem
          165 429 rmoveto
          346 -127 hlineto
          -76 callsubr
          176 vlineto
          61 -27 12 -47 vhcurveto
          -405 hlineto
          -37 -13 callsubr
          -54 34 -6 38 hvcurveto
          endchar
        </CharString>
        <CharString name="m">
          302 6 callsubr
          hstem
          67 152 109 153 108 8 callsubr
          404 hmoveto
          69 8 57 56 hvcurveto
          138 vlineto
          76 4 16 56 43 hhcurveto
          40 5 -36 -36 hvcurveto
          -198 vlineto
          -56 8 -57 69 68 9 -22 callgsubr
          210 vlineto
          132 -81 45 -73 -55 -61 -23 -45 -20 vhcurveto
          48 -29 -44 20 -44 hhcurveto
          -64 -41 -45 -39 -12 hvcurveto
          27 -3 57 -73 -72 -4 -57 -56 vhcurveto
          -274 vlineto
          -56 7 -57 69 69 7 -22 callgsubr
          97 vlineto
          97 12 76 53 40 4 -36 -36 vhcurveto
          -198 vlineto
          -56 8 -57 68 vhcurveto
          endchar
        </CharString>
        <CharString name="macron">
          -2 588 112 hstem
          149 700 -71 callsubr
        </CharString>
        <CharString name="minus">
          19 300 24 callgsubr
          165 300 -79 callgsubr
          endchar
        </CharString>
        <CharString name="mu">
          158 -119 -21 140 163 -140 140 337 -20 hstemhm
          90 142 182 158 hintmask 10111100
          90 -28 rmoveto
          -56 4 -56 68 69 1 56 56 vhcurveto
          112 vlineto
          -33 9 34 -28 55 hhcurveto
          48 31 38 33 9 hvcurveto
          hintmask 11011100
          -28 5 -66 73 73 3 56 57 vhcurveto
          273 vlineto
          57 -9 57 -68 -58 -23 -37 -87 -151 -27 -62 -57 -60 -18 72 158 66 -24 41 -57 -64 -17 -54 -57 vhcurveto
          endchar
        </CharString>
        <CharString name="multiply">
          138 167 -21 432 -20 hstem
          318 275 rmoveto
          100 -99 rlineto
          -84 callgsubr
          -100 99 101 101 rlineto
          -85 callgsubr
          -101 -101 -101 101 rlineto
          -85 callsubr
          100 -101 -99 -99 rlineto
          -84 callsubr
          endchar
        </CharString>
        <CharString name="n">
          41 6 callsubr
          hstem
          66 -43 callgsubr
          483 322 -68 callgsubr
        </CharString>
        <CharString name="nine">
          -4 21 -21 254 127 191 132 hstemhm
          23 150 118 144 vstemhm
          435 494 rmoveto
          201 -154 9 -55 -41 -162 -9 -201 vhcurveto
          -46 vlineto
          -171 127 -23 57 32 38 8 28 14 vhcurveto
          -101 -5 -14 -62 -47 vhcurveto
          hintmask 11111000
          -25 -19 -12 -23 -22 vvcurveto
          -32 24 -29 48 -3 vhcurveto
          101 74 132 117 hvcurveto
          32 1 110 63 vvcurveto
          -144 59 rmoveto
          -73 -40 callgsubr
          -59 -59 -59 0 59 0 vhcurveto
          73 -40 callgsubr
          59 59 59 0 -59 -16 callsubr
        </CharString>
        <CharString name="ntilde">
          41 6 callsubr
          207 -20 hstem
          66 -43 callgsubr
          246 587 -106 callsubr
          237 -265 -68 callgsubr
        </CharString>
        <CharString name="numbersign">
          134 80 214 -93 93 112 93 -93 205 hstemhm
          hintmask 10100000
          149 406 rmoveto
          49 hlineto
          -20 -112 rlineto
          -64 hlineto
          -28 -27 -2 -45 hvcurveto
          hintmask 01100000
          -42 27 -4 28 vhcurveto
          49 -34 callsubr
          85 -34 callsubr
          58 hlineto
          26 29 4 42 45 -29 2 -26 hvcurveto
          -42 hlineto
          20 112 rlineto
          58 hlineto
          26 29 5 41 45 -29 2 -26 hvcurveto
          -43 -34 callgsubr
          -85 -34 callgsubr
          -65 hlineto
          -28 -27 -2 -45 -41 27 -5 28 hvcurveto
          144 hmoveto
          84 hlineto
          -20 -112 rlineto
          -84 hlineto
          endchar
        </CharString>
        <CharString name="o">
          -5 -4 106 287 115 -31 callgsubr
          39 -51 callsubr
          -159 rmoveto
          181 vlineto
          -32 callgsubr
        </CharString>
        <CharString name="oacute">
          -18 callgsubr
          225 -20 -31 callgsubr
          39 312 -96 callsubr
          -35 495 -102 callgsubr
        </CharString>
        <CharString name="ocircumflex">
          -18 callgsubr
          7 callgsubr
          39 -28 callsubr
          hintmask 10111100
          294 730 -107 callgsubr
          -350 -328 -92 callgsubr
          hintmask 11011100
          -32 callgsubr
        </CharString>
        <CharString name="odieresis">
          -18 callgsubr
          50 -3 callgsubr
          39 154 -122 -36 callsubr
          -124 149 hintmask 11110010
          39 312 -96 callsubr
          hintmask 11101100
          30 473 -98 callsubr
        </CharString>
        <CharString name="ogonek">
          -87 4 callgsubr
          -125 242 hstemhm
          73 98 hintmask 01010000
          287 -71 rmoveto
          -14 -30 -9 -24 hvcurveto
          hintmask 10010000
          -14 -4 -27 -31 -12 -25 9 44 vhcurveto
          hintmask 00110000
          66 81 50 24 22 vhcurveto
          -66 hlineto
          -60 -5 -77 -49 -89 vvcurveto
          -4 vlineto
          -77 66 -18 69 92 32 34 61 vhcurveto
          hintmask 01010000
          18 -24 12 -21 vhcurveto
          endchar
        </CharString>
        <CharString name="ograve">
          -18 callgsubr
          225 -20 -31 callgsubr
          228 716 -105 callsubr
          -301 -336 -96 callsubr
          endchar
        </CharString>
        <CharString name="one">
          -107 -45 callgsubr
          180 -16 callgsubr
          180 118 rmoveto
          -59 6 -59 70 70 6 59 59 vhcurveto
          464 vlineto
          57 -6 61 -70 -22 -6 -1 -7 -14 vhcurveto
          -23 -10 -37 -51 -67 -44 rrcurveto
          -32 -17 -26 -13 -38 vvcurveto
          -37 29 -33 40 35 25 12 20 22 vhcurveto
          endchar
        </CharString>
        <CharString name="onehalf">
          -30 0 63 0 181 -62 115 0 35 0 55 0 36 -36 193 114 -20 hstemhm
          91 183 -137 70 0 67 -1 64 hintmask 1010100101010000
          137 -10 callgsubr
          15 17 3 24 27 -17 1 -15 hvcurveto
          -242 hlineto
          hintmask 1001001110000000
          -18 -16 -1 -27 -24 16 -3 18 hvcurveto
          hintmask 1010100101010000
          82 141 rmoveto
          hintmask 1010010110000000
          -24 0 -26 33 33 1 25 27 vhcurveto
          169 vlineto
          24 0 26 -34 -7 -5 0 -4 -6 vhcurveto
          -11 -4 -18 -23 -30 -21 rrcurveto
          hintmask 1010001100100000
          -14 -6 -12 -7 -17 22 callgsubr
          16 10 6 9 12 vhcurveto
          32 -298 -12 callsubr
          hintmask 0100100101010000
          -30 callgsubr
          hintmask 1010100101010000
          -50 callgsubr
        </CharString>
        <CharString name="onequarter">
          17 callgsubr
          99 36 0 57 0 34 -34 191 115 -20 hstemhm
          81 183 -137 137 -68 68 -16 60 hintmask 1001001010000000
          -26 callgsubr
          hintmask 1010011100000000
          9 callgsubr
          hintmask 0101001010000000
          162 -135 rmoveto
          hintmask 0110011000100000
          -54 callsubr
          -63 callsubr
          hintmask 0101001000100000
          -44 callgsubr
          hintmask 1010101001000000
          -80 275 -35 callsubr
          -19 -23 -29 -20 rrcurveto
          hintmask 1010011010000000
          -14 -7 -12 -6 -18 22 callgsubr
          vhcurveto
          hintmask 1001001001000000
          20 callsubr
        </CharString>
        <CharString name="onesuperior">
          -184 444 -21 272 -20 hstemhm
          96 137 -68 68 hintmask 11100000
          165 472 -35 callsubr
          -18 -25 -30 -18 rrcurveto
          -13 -8 -13 -5 -18 22 callgsubr
          vhcurveto
          hintmask 11010000
          20 callsubr
        </CharString>
        <CharString name="ordfeminine">
          -101 422 65 147 66 -1 -20 hstemhm
          70 86 61 84 hintmask 11011000
          301 485 rmoveto
          152 vlineto
          32 -4 31 -37 -21 -22 -10 -37 vhcurveto
          hintmask 10111000
          22 -7 -17 24 -37 hhcurveto
          -40 -46 -24 -74 hvcurveto
          -81 vlineto
          -73 46 -25 40 37 17 25 22 7 vhcurveto
          -15 2 -32 41 40 1 32 31 vhcurveto
          -145 110 rmoveto
          hintmask 11011000
          19 2 20 23 29 7 -41 -24 vhcurveto
          -56 -1 -6 -26 -29 hhcurveto
          -23 -2 21 20 hvcurveto
          endchar
        </CharString>
        <CharString name="ordmasculine">
          -105 421 57 160 62 hstem
          76 86 64 83 vstem
          76 595 rmoveto
          -69 vlineto
          -103 93 -2 25 27 88 2 103 vhcurveto
          69 vlineto
          103 -88 2 -27 -25 -93 -2 -103 vhcurveto
          86 -89 rmoveto
          101 -40 callgsubr
          31 32 32 0 -31 0 vhcurveto
          -101 -40 callgsubr
          -28 -32 -32 0 28 -16 callsubr
        </CharString>
        <CharString name="oslash">
          -4 106 287 115 hstem
          40 -28 callsubr
          vstem
          40 -51 callsubr
          -102 rmoveto
          124 -40 callgsubr
          55 58 19 12 -6 -8 8 vhcurveto
          17 -87 rmoveto
          -135 -40 callgsubr
          -51 -56 -21 -14 8 8 -8 vhcurveto
          endchar
        </CharString>
        <CharString name="otilde">
          -18 callgsubr
          96 111 -31 callgsubr
          228 587 -107 callsubr
          16 13 12 8 16 hhcurveto
          10 10 -3 -6 10 hvcurveto
          -189 -275 -96 callsubr
          endchar
        </CharString>
        <CharString name="p">
          -9 callgsubr
          66 4 callsubr
          vstem
          66 387 rmoveto
          -473 vlineto
          -58 8 -56 67 70 7 56 58 vhcurveto
          171 vlineto
          -40 12 31 -44 65 hhcurveto
          73 81 44 133 hvcurveto
          145 vlineto
          132 -81 45 -73 -65 -31 -45 -39 -12 vhcurveto
          27 -4 57 -73 -72 -3 -57 -56 vhcurveto
          260 -198 rmoveto
          -35 -3 -36 -41 -52 -12 75 42 vhcurveto
          102 1 11 46 52 hhcurveto
          41 3 -37 -36 hvcurveto
          endchar
        </CharString>
        <CharString name="paragraph">
          204 -153 -21 732 141 hstem
          214 154 94 8 callsubr
          214 699 rmoveto
          -73 -81 -55 -122 hvcurveto
          -26 vlineto
          -123 81 -54 73 vhcurveto
          -380 -21 callsubr
          619 94 -619 -21 callsubr
          646 vlineto
          57 -31 57 -75 vhcurveto
          endchar
        </CharString>
        <CharString name="parenleft">
          10 callsubr
          120 143 vstem
          407 -20 rmoveto
          33 -20 27 -47 vhcurveto
          0 -77 0 80 vvcurveto
          455 vlineto
          89 77 -2 0 47 20 26 33 33 -20 27 -51 -121 -95 -61 -121 vhcurveto
          -470 vlineto
          -208 195 0 0 72 20 26 33 vhcurveto
          endchar
        </CharString>
        <CharString name="parenright">
          10 callsubr
          181 143 vstem
          37 -20 rmoveto
          -33 20 -26 72 vhcurveto
          0 195 8 callgsubr
          470 vlineto
          121 -95 61 -121 -51 -20 -27 -33 -33 20 -26 47 vhcurveto
          0 77 2 -89 vvcurveto
          -455 vlineto
          -80 -77 0 0 -47 -20 -27 -33 vhcurveto
          endchar
        </CharString>
        <CharString name="percent">
          242 -3 92 -68 -21 189 90 139 92 100 90 hstemhm
          49 93 99 91 77 93 99 91 hintmask 0111111110000000
          566 15 callgsubr
          16 -10 16 -25 13 vhcurveto
          6 -12 -11 3 -14 hhcurveto
          -26 -14 -24 -21 -11 hvcurveto
          -2 callgsubr
          1 -16 10 -16 26 -14 rrcurveto
          -5 10 9 -4 8 hhcurveto
          33 16 26 20 12 hvcurveto
          52 514 rmoveto
          -17 callgsubr
          360 -421 rmoveto
          -11 callgsubr
          vhcurveto
          hintmask 1011111110000000
          -14 callsubr
          -451 421 -22 callsubr
          360 -421 -22 callsubr
          endchar
        </CharString>
        <CharString name="period">
          -201 0 165 hstem
          67 165 vstem
          232 83 -82 callsubr
        </CharString>
        <CharString name="periodcentered">
          -90 267 165 hstem
          124 165 vstem
          289 350 -82 callsubr
        </CharString>
        <CharString name="plus">
          51 178 244 -10 callsubr
          243 hstemhm
          95 243 -10 callsubr
          244 hintmask 01001000
          178 300 rmoveto
          38 -50 hlineto
          hintmask 10010000
          -76 callsubr
          hintmask 01010000
          50 50 vlineto
          hintmask 10000100
          -81 callgsubr
          hintmask 10010000
          -50 49 hlineto
          hintmask 00101000
          -73 callsubr
          hintmask 10001000
          -49 -49 vlineto
          hintmask 01010000
          -37 -13 callsubr
          -54 35 -6 38 hvcurveto
          endchar
        </CharString>
        <CharString name="plusminus">
          29 106 122 49 244 -10 callsubr
          243 hstemhm
          82 245 -10 callsubr
          242 hintmask 11000010
          182 106 -74 callsubr
          hintmask 10101000
          -73 callgsubr
          2 293 rmoveto
          hintmask 10100100
          49 -50 hlineto
          hintmask 11001000
          -76 callsubr
          hintmask 10101000
          50 50 vlineto
          -81 callgsubr
          -50 49 hlineto
          hintmask 10010100
          -73 callsubr
          hintmask 11000100
          -49 -49 vlineto
          -37 -13 callsubr
          hvcurveto
          hintmask 10101000
          -54 35 -6 37 vhcurveto
          endchar
        </CharString>
        <CharString name="q">
          -9 callgsubr
          52 -37 callsubr
          vstem
          466 387 rmoveto
          56 -3 57 -72 -73 -4 -57 -27 vhcurveto
          39 -12 -31 45 -65 hhcurveto
          -73 -81 -45 -132 hvcurveto
          -145 vlineto
          -133 81 17 callsubr
          -171 vlineto
          13 callsubr
          -260 396 -9 callsubr
          -75 -52 -41 -3 36 35 vhcurveto
          endchar
        </CharString>
        <CharString name="question">
          61 0 165 419 126 hstemhm
          52 -7 callgsubr
          hintmask 11100100
          506 504 rmoveto
          121 -77 85 -151 -30 callsubr
          vhcurveto
          hintmask 11010100
          -100 -156 13 -137 vvcurveto
          -25 15 -41 57 47 22 26 36 14 7 12 4 5 vhcurveto
          29 38 123 50 103 vvcurveto
          hintmask 11001000
          -146 -421 -82 callsubr
        </CharString>
        <CharString name="questiondown">
          71 0 126 419 165 hstemhm
          51 -7 callgsubr
          hintmask 11010100
          505 206 rmoveto
          103 -123 50 -29 38 vhcurveto
          -4 5 -7 12 14 vvcurveto
          36 -22 26 -47 -57 -15 -41 -25 vhcurveto
          -137 156 13 -100 vvcurveto
          -70 -54 -4 -26 vhcurveto
          hintmask 11100100
          -67 -8 43 32 52 -45 20 -30 -45 -31 -28 -39 -53 27 -153 199 151 77 85 121 hvcurveto
          hintmask 11001000
          -146 421 rmoveto
          56 -30 27 -52 -53 -30 -27 -56 -57 30 -25 53 55 27 25 57 vhcurveto
          endchar
        </CharString>
        <CharString name="quotedbl">
          -51 452 250 -2 -20 hstemhm
          55 122 84 122 hintmask 10110000
          177 552 -59 callsubr
          206 30 rmoveto
          74 vlineto
          hintmask 01110000
          -73 callsubr
          -102 -5 callgsubr
        </CharString>
        <CharString name="quotedblbase">
          61 -80 247 hstemhm
          94 165 44 165 vstemhm
          259 85 -72 callgsubr
        </CharString>
        <CharString name="quotedblleft">
          88 0 callgsubr
          95 99 -99 165 44 99 -99 165 hintmask 11001000
          304 535 rmoveto
          -25 callsubr
          vhcurveto
          hintmask 10101000
          -56 callsubr
          -209 hmoveto
          -25 callsubr
          vhcurveto
          hintmask 10110000
          -56 callsubr
          endchar
        </CharString>
        <CharString name="quotedblright">
          86 0 callgsubr
          98 165 44 165 vstemhm
          263 618 -72 callgsubr
        </CharString>
        <CharString name="quoteleft">
          -115 0 callgsubr
          101 165 vstemhm
          101 535 rmoveto
          -25 callsubr
          vhcurveto
          hintmask 11000000
          -56 callsubr
          endchar
        </CharString>
        <CharString name="quoteright">
          -153 0 callgsubr
          84 165 vstemhm
          249 618 -46 callgsubr
          hintmask 11000000
          -87 callgsubr
          endchar
        </CharString>
        <CharString name="quotesinglbase">
          -204 0 250 hstem
          75 122 vstem
          197 100 -59 callsubr
          endchar
        </CharString>
        <CharString name="quotesingle">
          -239 452 250 hstem
          65 122 vstem
          187 552 -59 callsubr
          endchar
        </CharString>
        <CharString name="r">
          -104 21 -21 350 149 hstem
          66 150 vstem
          385 425 rmoveto
          52 -11 22 -52 -43 -44 -47 -75 -19 vhcurveto
          -8 hlineto
          55 0 67 -68 -66 -8 -54 -56 vhcurveto
          -280 vlineto
          -54 8 -55 66 68 8 55 54 vhcurveto
          143 vlineto
          93 74 5 21 47 27 23 52 vhcurveto
          endchar
        </CharString>
        <CharString name="registered">
          212 78 45 217 200 84 44 hstemhm
          58 47 141 73 64 73 -61 74 135 44 hintmask 11111101
          246 259 rmoveto
          -29 0 -27 37 36 0 27 29 vhcurveto
          81 27 vlineto
          32 5 -21 -28 hvcurveto
          -51 vlineto
          -27 26 -13 21 vhcurveto
          hintmask 11111011
          19 20 8 23 4 0 6 -8 8 hvcurveto
          hintmask 11111101
          -3 1 -2 3 5 vvcurveto
          33 vlineto
          42 -26 21 -23 6 vhcurveto
          hintmask 11111011
          54 17 8 48 17 vvcurveto
          98 -108 24 callsubr
          -78 hlineto
          -37 0 -25 -28 hvcurveto
          106 -94 rmoveto
          -33 92 36 hlineto
          0 40 0 -43 vvcurveto
          -49 -43 24 callsubr
          252 -22 -68 callsubr
        </CharString>
        <CharString name="ring">
          -169 471 7 callsubr
          hstem
          46 7 callsubr
          vstem
          218 586 -53 callgsubr
        </CharString>
        <CharString name="s">
          -7 callsubr
          -12 callgsubr
          hintmask 10010101
          193 369 -1 callsubr
          hintmask 10101010
          -64 callsubr
          hintmask 01100110
          -48 callgsubr
        </CharString>
        <CharString name="scaron">
          -7 callsubr
          243 -20 -12 callgsubr
          hintmask 1001101010000000
          373 657 -103 callsubr
          -85 -198 -1 callsubr
          hintmask 1010110100000000
          -64 callsubr
          hintmask 0110101100000000
          -48 callgsubr
        </CharString>
        <CharString name="section">
          81 -123 105 -105 234 10 111 167 102 10 234 -105 105 hstemhm
          82 148 128 144 hintmask 10110111
          502 309 rmoveto
          4 vlineto
          184 -166 4 -46 -23 -37 27 40 71 34 1 37 38 19 -19 -55 vhcurveto
          hintmask 10111011
          -28 35 -27 33 35 37 20 47 48 -7 119 -190 -139 -80 -38 -145 -41 29 -39 35 -22 vhcurveto
          -35 -27 -26 -45 -75 vvcurveto
          -4 vlineto
          -184 158 -4 47 vhcurveto
          26 -3 34 -26 -38 vvcurveto
          -71 -34 -1 -37 -38 -19 19 55 vhcurveto
          hintmask 01111011
          28 -35 27 -33 -35 -37 -20 -47 -48 7 -119 190 139 80 38 145 40 -28 38 -34 22 vhcurveto
          37 27 29 45 77 vvcurveto
          -154 39 rmoveto
          -61 -40 callgsubr
          -55 -58 -56 0 55 0 vhcurveto
          61 -40 callgsubr
          51 56 58 0 -51 -16 callsubr
        </CharString>
        <CharString name="semicolon">
          -202 -83 247 97 165 hstemhm
          60 165 -98 98 hintmask 11100000
          225 344 -90 callgsubr
          1 -262 -46 callgsubr
          hintmask 11010000
          -87 callgsubr
          endchar
        </CharString>
        <CharString name="seven">
          6 21 -21 561 139 hstem
          137 158 vstem
          181 364 rmoveto
          -36 -64 -8 -13 -95 vvcurveto
          -75 vlineto
          -58 0 -59 78 80 0 59 58 vhcurveto
          75 vlineto
          56 4 20 33 60 vhcurveto
          144 263 rlineto
          5 10 2 19 callgsubr
          -268 hlineto
          -46 -61 -6 -63 -64 61 -6 46 hvcurveto
          157 -6 hlineto
          endchar
        </CharString>
        <CharString name="six">
          -4 -4 131 191 129 253 -20 hstemhm
          61 146 117 150 vstemhm
          61 205 rmoveto
          -200 156 -9 54 41 162 9 200 vhcurveto
          46 vlineto
          173 -127 23 -57 -31 -38 -8 -28 -14 vhcurveto
          100 5 14 61 47 vhcurveto
          hintmask 11111000
          25 19 12 23 22 vvcurveto
          32 -24 29 -47 3 vhcurveto
          -101 -76 -132 -116 hvcurveto
          -32 -1 -112 -63 vvcurveto
          146 -59 rmoveto
          73 -40 callgsubr
          59 59 58 0 -59 0 vhcurveto
          -73 -40 callgsubr
          -59 -58 -59 0 59 -16 callsubr
        </CharString>
        <CharString name="slash">
          -47 8 -21 717 -20 hstem
          402 607 rmoveto
          6 13 5 15 20 vvcurveto
          -2 16 -10 15 -26 11 rrcurveto
          5 -13 -11 2 -14 hhcurveto
          -26 -3 -12 -24 -9 -22 -244 -571 rcurveline
          -6 -15 -5 -13 -19 vvcurveto
          2 -16 11 -15 27 -12 rrcurveto
          -5 11 9 -2 8 hhcurveto
          31 15 28 22 10 hvcurveto
          endchar
        </CharString>
        <CharString name="space">
          -101 endchar
        </CharString>
        <CharString name="sterling">
          118 0 141 108 122 211 122 hstemhm
          17 227 -150 150 155 161 hintmask 11110100
          310 249 rmoveto
          -81 callgsubr
          -66 139 hlineto
          0 0 72 71 68 16 -47 -77 -42 59 -4 25 77 0 41 18 70 -25 163 -220 vhcurveto
          hintmask 11101100
          -22 -199 0 -208 hvcurveto
          -125 -4 vlineto
          hintmask 11110100
          -38 -72 callsubr
          hintmask 11101100
          5 -137 hlineto
          -61 11 -51 69 vhcurveto
          208 hlineto
          52 59 6 66 63 -59 6 -52 hvcurveto
          -138 108 hlineto
          endchar
        </CharString>
        <CharString name="t">
          -65 0 141 239 120 200 -20 hstemhm
          30 250 -151 151 hintmask 11110000
          101 500 rmoveto
          -35 -36 -3 -57 -55 36 -5 35 hvcurveto
          hintmask 11101000
          28 -165 hlineto
          -122 8 -93 143 60 53 24 53 52 -20 12 -48 -44 -1 37 27 vhcurveto
          175 41 vlineto
          35 37 5 55 57 -37 3 -35 hvcurveto
          -41 88 hlineto
          56 -8 56 -67 -68 -8 -56 -56 vhcurveto
          -88 vlineto
          endchar
        </CharString>
        <CharString name="thorn">
          86 -179 -21 200 5 callsubr
          201 -20 hstem
          90 160 108 158 vstem
          90 -86 rmoveto
          -58 11 -56 70 67 12 56 58 vhcurveto
          170 vlineto
          -39 12 34 -45 65 hhcurveto
          73 82 -15 callsubr
          -82 44 -73 -65 -34 -44 -40 -12 vhcurveto
          171 vlineto
          58 -11 56 -70 -67 -12 -56 -58 vhcurveto
          268 -396 -55 callsubr
        </CharString>
        <CharString name="three">
          13 -4 5 callgsubr
          351 139 hstemhm
          335 138 hintmask 10110000
          208 439 rmoveto
          -12 -21 -5 -17 -14 vvcurveto
          -33 22 -21 32 46 44 -44 -60 12 callsubr
          vhcurveto
          hintmask 01110000
          3 callgsubr
          -102 127 -49 82 11 callgsubr
          114 -60 58 -62 25 vhcurveto
          90 150 rlineto
          6 10 1 19 callgsubr
          -223 hlineto
          -45 -58 -6 -63 -64 58 -6 45 hvcurveto
          130 -7 hlineto
          endchar
        </CharString>
        <CharString name="threequarters">
          17 callgsubr
          -124 223 36 55 35 13 callgsubr
          86 224 -178 178 -57 57 hintmask 1001101001000000
          132 -10 callgsubr
          16 17 3 25 26 -17 1 -16 hvcurveto
          -243 hlineto
          hintmask 1001101010000000
          -16 -17 -1 -26 -25 17 -3 16 hvcurveto
          hintmask 1001101001000000
          88 263 -2 callsubr
          vhcurveto
          hintmask 1001101000100000
          -6 callgsubr
          hvcurveto
          hintmask 1001011001000000
          -61 callsubr
          hintmask 0101100110000000
          -23 23 -2 18 vhcurveto
          48 hlineto
          52 -442 rmoveto
          -54 callsubr
          hintmask 0011101010000000
          -63 callsubr
          hintmask 0101101010000000
          -44 callgsubr
          endchar
        </CharString>
        <CharString name="threesuperior">
          -167 422 13 callgsubr
          67 178 -57 57 hintmask 10100100
          142 595 -2 callsubr
          -6 callgsubr
          vhcurveto
          hintmask 01101000
          -61 callsubr
          hintmask 10011000
          -23 23 -2 18 vhcurveto
          48 hlineto
          endchar
        </CharString>
        <CharString name="tilde">
          -38 572 -21 157 -20 hstem
          208 588 -106 callsubr
          endchar
        </CharString>
        <CharString name="two">
          30 0 140 438 126 hstemhm
          50 151 -151 169 137 148 hintmask 11101000
          276 704 rmoveto
          -30 callsubr
          -39 -15 -34 -105 -41 hvcurveto
          -105 -41 -71 -77 -103 vvcurveto
          -80 vlineto
          -41 17 -48 67 vhcurveto
          249 hlineto
          56 62 7 64 63 -62 6 -56 hvcurveto
          hintmask 11011000
          -174 31 hlineto
          57 49 31 47 19 vhcurveto
          0 189 60 160 vvcurveto
          121 -77 85 -151 vhcurveto
          endchar
        </CharString>
        <CharString name="twoinferior">
          -40 0 63 119 115 hstemhm
          144 63 66 64 vstemhm
          239 297 -12 callsubr
          hintmask 11110000
          -30 callgsubr
          -50 callgsubr
        </CharString>
        <CharString name="twosuperior">
          -180 425 58 110 106 hstemhm
          68 58 61 59 vstemhm
          156 699 rmoveto
          -77 -11 -60 -21 -14 11 -11 19 11 17 7 21 hvcurveto
          hintmask 11110000
          12 3 17 27 11 20 -2 -27 -14 -6 -14 -41 -16 vhcurveto
          -42 -16 -27 -29 -40 vvcurveto
          -31 vlineto
          -17 8 -19 25 vhcurveto
          98 hlineto
          23 24 0 30 27 -30 1 -17 hvcurveto
          -69 9 hlineto
          22 20 11 18 7 vhcurveto
          0 75 24 62 vvcurveto
          49 -30 32 -60 vhcurveto
          endchar
        </CharString>
        <CharString name="u">
          38 0 117 383 -89 callgsubr
          endchar
        </CharString>
        <CharString name="uacute">
          -75 callsubr
          125 262 -102 callgsubr
        </CharString>
        <CharString name="ucircumflex">
          42 0 117 383 23 callgsubr
          hstem
          59 -43 callgsubr
          310 730 -107 callgsubr
          -346 -462 -97 callsubr
          endchar
        </CharString>
        <CharString name="udieresis">
          42 0 117 433 -3 callgsubr
          59 154 -122 -36 callsubr
          -129 154 hintmask 11100100
          -95 callsubr
          hintmask 11011000
          184 240 -98 callsubr
        </CharString>
        <CharString name="ugrave">
          -75 callsubr
          187 330 -99 callsubr
        </CharString>
        <CharString name="underscore">
          204 1 24 callgsubr
          173 1 rmoveto
          382 hlineto
          -81 callgsubr
          -410 -21 callgsubr
          endchar
        </CharString>
        <CharString name="v">
          -62 6 callgsubr
          410 374 rmoveto
          7 17 5 18 17 vvcurveto
          38 -18 36 -48 -44 -23 -38 -34 -10 vhcurveto
          -52 -182 rlineto
          -8 hlineto
          -56 182 rlineto
          37 -11 -26 35 -37 hhcurveto
          -52 -19 -34 -39 -18 6 -19 6 -16 hvcurveto
          113 -296 rlineto
          -78 30 21 0 29 hhcurveto
          27 20 1 77 29 hvcurveto
          endchar
        </CharString>
        <CharString name="w">
          198 6 callgsubr
          350 442 rmoveto
          -32 -29 -17 -53 -17 hvcurveto
          -46 -141 rlineto
          -8 hlineto
          -63 196 rlineto
          37 -12 -23 36 -37 hhcurveto
          -53 -18 -35 -39 -18 6 -19 6 -16 hvcurveto
          112 -295 -3 callsubr
          29 hvcurveto
          54 180 rlineto
          8 hlineto
          52 -180 -3 callsubr
          30 hvcurveto
          111 295 rlineto
          6 17 6 17 18 vvcurveto
          38 -18 37 -48 -46 -20 -36 -37 -11 vhcurveto
          -56 -196 rlineto
          -8 hlineto
          -53 141 rlineto
          53 -19 -25 17 -32 hhcurveto
          endchar
        </CharString>
        <CharString name="x">
          -31 6 callgsubr
          364 500 rmoveto
          -28 -20 -25 -29 -20 hvcurveto
          -60 -84 -62 84 rlineto
          29 -19 -20 25 -28 hhcurveto
          -11 -12 -4 -9 -14 hvcurveto
          -20 -14 -8 -16 -17 vvcurveto
          -22 13 -23 15 -23 vhcurveto
          84 -122 -84 -121 rlineto
          -15 -23 -13 -24 -22 vvcurveto
          -17 8 -16 20 -14 vhcurveto
          -9 14 12 -4 11 hhcurveto
          28 20 25 30 19 hvcurveto
          62 84 60 -84 rlineto
          -29 21 20 -26 28 hhcurveto
          11 12 4 9 14 hvcurveto
          20 13 8 17 17 vvcurveto
          22 -13 24 -15 23 vhcurveto
          -89 121 89 122 rlineto
          16 22 12 25 22 vvcurveto
          17 -8 16 -20 13 vhcurveto
          9 -14 -13 4 -11 hhcurveto
          endchar
        </CharString>
        <CharString name="y">
          19 callsubr
          hstem
          -60 callgsubr
          42 -33 31 -39 -39 -25 -39 -38 -12 vhcurveto
          -33 callgsubr
          -41 -35 -29 -39 -20 6 -21 7 -21 hvcurveto
          -52 callgsubr
          -29 -25 -14 -41 -42 29 -22 76 hvcurveto
          endchar
        </CharString>
        <CharString name="yacute">
          19 callsubr
          244 -20 hstem
          -80 callsubr
          -27 -6 -36 -4 hvcurveto
          -1 -4 0 -5 -4 vvcurveto
          -42 29 -22 76 vhcurveto
          29 849 -102 callgsubr
        </CharString>
        <CharString name="ydieresis">
          19 callsubr
          68 152 hstem
          51 -36 callsubr
          vstem
          -80 callsubr
          -32 -6 -54 -39 32 -20 73 hvcurveto
          88 -75 callgsubr
          endchar
        </CharString>
        <CharString name="yen">
          19 -21 167 122 413 -20 hstemhm
          186 127 -127 234 hintmask 11101000
          348 165 rmoveto
          -81 callgsubr
          hintmask 11110000
          -35 64 hlineto
          127 225 rlineto
          21 36 8 23 10 vvcurveto
          15 -8 16 -22 14 vhcurveto
          7 -13 -11 3 -12 hhcurveto
          -34 -21 -34 -31 -14 hvcurveto
          -77 -162 rlineto
          -14 hlineto
          -77 162 rlineto
          31 -14 -21 34 -34 hhcurveto
          -11 -12 -3 -7 -13 hvcurveto
          -22 -14 -8 -16 -15 vvcurveto
          -17 10 -23 16 -25 vhcurveto
          129 -229 rlineto
          -64 -34 vlineto
          -73 callgsubr
          34 -71 hlineto
          -48 5 -48 59 58 5 48 48 vhcurveto
          71 vlineto
          endchar
        </CharString>
        <CharString name="z">
          16 callsubr
          hstem
          129 500 -69 callgsubr
        </CharString>
        <CharString name="zcaron">
          16 callsubr
          247 -20 hstem
          362 657 -103 callsubr
          -138 -67 -69 callgsubr
        </CharString>
        <CharString name="zero">
          59 -4 121 462 125 hstem
          51 164 131 162 vstem
          51 500 rmoveto
          -295 vlineto
          -200 184 -9 37 vhcurveto
          17 hlineto
          38 181 9 200 hvcurveto
          295 vlineto
          195 -181 9 -38 vhcurveto
          -17 hlineto
          -37 -184 -9 -195 hvcurveto
          164 -321 rmoveto
          338 vlineto
          0 4 62 62 61 4 -62 0 vhcurveto
          -338 vlineto
          0 -4 -62 -61 -62 -4 62 -16 callsubr
        </CharString>
      <CharString index="0">
        -99 callgsubr
        -103 callgsubr
        return
      </CharString>
      <CharString index="1">
        rmoveto
        -9 -6 -13 -17 -20 vvcurveto
        -9 3 -12 8 -11 vhcurveto
        -19 13 16 -4 18 hhcurveto
        10 11 2 6 9 hvcurveto
        110 67 rlineto
        13 9 12 16 18 vvcurveto
        9 -3 13 -8 12 vhcurveto
        19 -13 -20 4 -17 hhcurveto
        -10 -9 -3 -6 -9 hvcurveto
        return
      </CharString>
      <CharString index="2">
        rmoveto
        11 hlineto
        74 -268 rlineto
        -159 hlineto
        210 304 rmoveto
        50 -14 -18 44 -74 hhcurveto
        -50 hlineto
        -74 -18 -44 -50 -14 hvcurveto
        -33 -116 -39 -122 -33 -115 rrcurveto
        -88 callsubr
        200 -70 vlineto
        -51 1 -49 69 68 1 50 50 vhcurveto
        15 vlineto
        44 -3 49 -1 45 vhcurveto
        return
      </CharString>
      <CharString index="3">
        271 570 -105 callgsubr
        return
      </CharString>
      <CharString index="4">
        -11 12 11 -4 12 hhcurveto
        16 18 5 11 9 hvcurveto
        55 52 55 -52 rlineto
        -11 9 18 -5 16 hhcurveto
        12 11 4 11 12 hvcurveto
        10 9 9 13 17 vvcurveto
        16 -7 13 -7 7 vhcurveto
        return
      </CharString>
      <CharString index="5">
        -106 callgsubr
        endchar
      </CharString>
      <CharString index="6">
        rmoveto
        -101 callsubr
        208 hmoveto
        -101 callsubr
        return
      </CharString>
      <CharString index="7">
        -43 callsubr
        -104 callgsubr
        return
      </CharString>
      <CharString index="8">
        rmoveto
        -10 10 -13 6 -15 1 rrcurveto
        -10 hlineto
        -16 -1 -12 -6 -10 -10 -95 -90 rcurveline
        -7 -7 -7 -13 -16 vvcurveto
        -17 9 -13 10 -9 vhcurveto
        return
      </CharString>
      <CharString index="9">
        40 -12 -31 44 -65 hhcurveto
        -73 -81 -44 -133 hvcurveto
        -145 vlineto
        -132 81 -45 73 65 31 45 39 12 vhcurveto
        -27 4 -57 73 72 3 -22 callgsubr
        -260 198 rmoveto
        return
      </CharString>
      <CharString index="10">
        -84 callgsubr
        -122 120 123 122 rlineto
        -85 callgsubr
        -157 -156 rlineto
        -17 -17 -14 -15 -19 vvcurveto
        -21 17 -17 13 -13 vhcurveto
        return
      </CharString>
      <CharString index="11">
        rmoveto
        -135 94 -74 138 138 94 71 138 vhcurveto
        381 vlineto
        57 -6 57 -77 -78 -5 -27 callgsubr
        -394 vlineto
        0 -1 -78 -65 -64 -2 78 0 vhcurveto
        394 vlineto
        57 -5 57 -78 -77 -6 1 callgsubr
      </CharString>
      <CharString index="12">
        -86 callgsubr
        -56 30 -27 53 52 30 27 56 vhcurveto
        return
      </CharString>
      <CharString index="13">
        -20 hstem
        42 -37 callsubr
        vstem
        -104 callsubr
        return
      </CharString>
      <CharString index="14">
        rmoveto
        150 266 rlineto
        24 43 10 27 12 vvcurveto
        18 -10 19 -26 16 vhcurveto
        8 -15 -13 4 -14 hhcurveto
        -40 -25 -40 -37 -17 hvcurveto
        -91 -191 rlineto
        -16 hlineto
        -91 191 rlineto
        37 -17 -25 40 -40 hhcurveto
        -13 -14 -4 -8 -15 hvcurveto
        -27 -16 -9 -19 -18 vvcurveto
        -27 18 -27 16 -28 vhcurveto
        149 -266 rlineto
        -174 vlineto
        -56 6 -57 70 69 6 -22 callgsubr
        endchar
      </CharString>
      <CharString index="15">
        -52 callsubr
        -4 46 47 158 4 -64 callgsubr
        4 -47 -46 -166 -4 -62 callsubr
        return
      </CharString>
      <CharString index="16">
        -90 callsubr
        hintmask 10111110
        -89 callsubr
        return
      </CharString>
      <CharString index="17">
        rmoveto
        -95 callgsubr
        return
      </CharString>
      <CharString index="18">
        -20 hstem
        59 -43 callgsubr
        -95 callsubr
        return
      </CharString>
      <CharString index="19">
        -59 -147 -7 -190 hvcurveto
        -117 vlineto
        -137 98 -49 110 -1 vhcurveto
        84 123 26 87 41 -32 9 -33 hvcurveto
        return
      </CharString>
      <CharString index="20">
        -80 66 7 -22 vvcurveto
        -14 -15 -13 -1 -14 vhcurveto
        -4 vlineto
        -17 13 -8 11 62 29 100 65 vhcurveto
        return
      </CharString>
      <CharString index="21">
        57 -27 25 -55 -53 -30 -25 -57 return
      </CharString>
      <CharString index="22">
        15 15 14 17 20 vvcurveto
        13 -6 13 -15 15 vhcurveto
        16 -16 -14 7 -13 hhcurveto
        -20 -16 -15 -15 -15 hvcurveto
        return
      </CharString>
      <CharString index="23">
        -16 16 17 -14 19 hhcurveto
        13 13 6 15 15 hvcurveto
        17 17 6 14 13 vvcurveto
        19 -14 16 -16 16 vhcurveto
        return
      </CharString>
      <CharString index="24">
        -104 48 -63 -80 hhcurveto
        -47 -15 42 32 hvcurveto
        48 199 vlineto
        71 0 42 21 hvcurveto
        -270 47 rmoveto
        return
      </CharString>
      <CharString index="25">
        456 113 rmoveto
        273 vlineto
        58 -8 56 -67 -36 -41 -18 -67 vhcurveto
        return
      </CharString>
      <CharString index="26">
        34 38 6 54 59 -38 3 -34 hvcurveto
        return
      </CharString>
      <CharString index="27">
        0 0 55 58 56 0 -55 0 vhcurveto
        -181 -40 callgsubr
        -51 -56 -58 0 51 0 vhcurveto
        return
      </CharString>
      <CharString index="28">
        -74 callsubr
        -37 -13 callsubr
        -54 35 -6 37 hvcurveto
        return
      </CharString>
      <CharString index="29">
        -67 callgsubr
        38 183 9 198 hvcurveto
        return
      </CharString>
      <CharString index="30">
        -20 hstem
        84 166 vstem
        -79 callsubr
        return
      </CharString>
      <CharString index="31">
        -29 callgsubr
        225 -20 hstem
        70 152 vstem
        -87 callsubr
        return
      </CharString>
      <CharString index="32">
        826 -101 callgsubr
        return
      </CharString>
      <CharString index="33">
        vlineto
        57 -8 57 -68 -69 -9 -27 callgsubr
        return
      </CharString>
      <CharString index="34">
        -37 -72 callsubr
        return
      </CharString>
      <CharString index="35">
        -46 callgsubr
        hintmask 11100000
        -87 callgsubr
        209 15 callsubr
        vhcurveto
        -87 callgsubr
        endchar
      </CharString>
      <CharString index="36">
        hstem
        42 102 rmoveto
        -6 -10 -1 -8 -12 vvcurveto
        -36 30 -36 50 vhcurveto
        263 hlineto
        52 61 6 66 65 -61 6 -52 hvcurveto
        -144 hlineto
        -7 7 257 447 rlineto
        4 7 2 10 10 vvcurveto
        36 -28 40 -51 vhcurveto
        -263 hlineto
        -53 -60 -6 -70 -61 60 -6 53 hvcurveto
        144 hlineto
        8 -8 rlineto
        return
      </CharString>
      <CharString index="37">
        vlineto
        -76 callsubr
        return
      </CharString>
      <CharString index="38">
        rmoveto
        -46 -47 -7 -57 -56 47 -6 46 hvcurveto
        110 hlineto
        -173 -244 rlineto
        -14 -20 -14 -25 -24 vvcurveto
        -53 54 -8 40 vhcurveto
        197 hlineto
        47 46 8 56 57 -46 6 -47 hvcurveto
        -110 hlineto
        174 243 rlineto
        11 21 16 25 22 vvcurveto
        51 -55 11 -38 vhcurveto
        endchar
      </CharString>
      <CharString index="39">
        rmoveto
        133 -81 45 -73 -65 -33 -45 -39 -11 vhcurveto
        28 -5 56 -73 -73 -3 -56 -57 vhcurveto
        -273 -38 callsubr
        95 vlineto
        97 11 77 54 40 4 -36 -38 vhcurveto
        -195 -38 callsubr
        endchar
      </CharString>
      <CharString index="40">
        vlineto
        -198 186 -9 37 vhcurveto
        17 hlineto
        return
      </CharString>
      <CharString index="41">
        rmoveto
        8 14 8 16 16 vvcurveto
        16 -8 16 -24 14 vhcurveto
        8 -14 -13 4 -10 hhcurveto
        -26 -15 -22 -21 -12 hvcurveto
        -41 -72 rlineto
        -9 -16 -8 -15 -15 vvcurveto
        -16 9 -16 26 -15 vhcurveto
        -8 14 11 -3 10 hhcurveto
        25 14 20 23 14 hvcurveto
        return
      </CharString>
      <CharString index="42">
        23 5 40 54 65 1 -35 -63 vhcurveto
        -125 hlineto
        return
      </CharString>
      <CharString index="43">
        184 vhcurveto
        124 vlineto
        184 -158 return
      </CharString>
      <CharString index="44">
        -27 35 -27 32 41 32 26 40 40 -9 131 -183 vhcurveto
        -13 hlineto
        -135 -74 -41 -143 -1 hvcurveto
        -8 vlineto
        2 -172 271 -19 -139 vvcurveto
        -56 -29 -15 -40 -1 vhcurveto
        -40 -22 15 50 -1 hvcurveto
        return
      </CharString>
      <CharString index="45">
        24 -30 9 -14 -21 -24 -12 -18 -61 32 -34 92 69 66 18 77 vhcurveto
        4 vlineto
        89 -36 -8 -60 5 vhcurveto
        return
      </CharString>
      <CharString index="46">
        -20 callsubr
        -200 187 -8 37 150 104 87 146 -29 callsubr
        -65 0 77 0 vhcurveto
        317 -40 callgsubr
        65 65 return
      </CharString>
      <CharString index="47">
        115 -200 rmoveto
        91 66 144 108 41 hvcurveto
        120 318 rlineto
        7 19 6 20 20 vvcurveto
        return
      </CharString>
      <CharString index="48">
        -25 callgsubr
        63 -38 97 -178 -59 -147 -7 -190 vhcurveto
        -117 vlineto
        return
      </CharString>
      <CharString index="49">
        10 -42 callgsubr
        118 return
      </CharString>
      <CharString index="50">
        -59 callgsubr
        -132 101 -54 105 92 125 32 128 -24 callgsubr
        vhcurveto
        return
      </CharString>
      <CharString index="51">
        46 -1 -42 21 -35 hhcurveto
        -37 -34 -21 -47 hvcurveto
        -67 1 38 -111 170 hhcurveto
        5 hlineto
        89 2 128 33 164 vvcurveto
        4 vlineto
        -4 201 -270 13 -2 111 rrcurveto
        endchar
      </CharString>
      <CharString index="52">
        -65 callsubr
        -20 return
      </CharString>
      <CharString index="53">
        -4 callgsubr
        245 -77 callgsubr
        return
      </CharString>
      <CharString index="54">
        -47 callgsubr
        -53 callsubr
      </CharString>
      <CharString index="55">
        34 -102 48 -121 39 -97 8 -20 rcurveline
        -44 -23 -21 -68 -25 -6 -9 1 -10 hhcurveto
        return
      </CharString>
      <CharString index="56">
        22 callsubr
        725 -69 callsubr
        return
      </CharString>
      <CharString index="57">
        -18 9 -21 27 vhcurveto
        106 hlineto
        25 26 0 33 29 -32 1 -19 hvcurveto
        -75 10 hlineto
        23 22 12 20 8 vhcurveto
        0 81 26 67 vvcurveto
        53 -33 35 -65 vhcurveto
        endchar
      </CharString>
      <CharString index="58">
        rmoveto
        72 -13 112 -203 1 vhcurveto
        return
      </CharString>
      <CharString index="59">
        40 -1 -24 17 -33 hhcurveto
        -46 -22 -18 -40 -50 30 -84 154 79 112 29 121 88 -79 38 -65 32 hvcurveto
        -43 20 -38 19 26 vvcurveto
        endchar
      </CharString>
      <CharString index="60">
        rmoveto
        -38 -21 -19 -36 -36 -21 19 38 40 21 17 36 38 19 -17 -40 vhcurveto
        return
      </CharString>
      <CharString index="61">
        -32 callsubr
        vhcurveto
        return
      </CharString>
      <CharString index="62">
        -58 callsubr
        hstem
        return
      </CharString>
      <CharString index="63">
        -18 4 -15 27 26 3 17 17 vhcurveto
        125 vlineto
        21 -3 17 -29 vhcurveto
        return
      </CharString>
      <CharString index="64">
        154 109 8 callsubr
        return
      </CharString>
      <CharString index="65">
        0 -41 callsubr
        return
      </CharString>
      <CharString index="66">
        -409 rlineto
        -27 10 20 -57 62 hhcurveto
        66 hlineto
        74 0 57 58 hvcurveto
        507 vlineto
        43 -6 35 -68 -61 -6 -35 -43 vhcurveto
        return
      </CharString>
      <CharString index="67">
        vlineto
        0 0 return
      </CharString>
      <CharString index="68">
        -39 12 31 -45 65 hhcurveto
        73 81 -15 callsubr
        -81 44 -73 -65 -31 -44 -40 -12 vhcurveto
        return
      </CharString>
      <CharString index="69">
        -20 hstem
        71 166 132 166 vstem
        return
      </CharString>
      <CharString index="70">
        69 67 -62 6 -53 hvcurveto
        -119 return
      </CharString>
      <CharString index="71">
        115 rmoveto
        -58 6 -57 return
      </CharString>
      <CharString index="72">
        -58 0 -57 76 vhcurveto
        166 hlineto
        0 195 8 callgsubr
        310 vlineto
        121 -95 61 -121 vhcurveto
        return
      </CharString>
      <CharString index="73">
        hlineto
        11 62 0 3 4 vvcurveto
        hintmask 10010000
        38 -26 5 -26 -32 -8 -33 -14 -2 vhcurveto
        hintmask 10100000
        -11 -65 rlineto
        return
      </CharString>
      <CharString index="74">
        -64 -211 -67 211 rlineto
        40 -13 -24 35 -38 hhcurveto
        return
      </CharString>
      <CharString index="75">
        -80 callgsubr
        endchar
      </CharString>
      <CharString index="76">
        hstem
        39 -28 callsubr
        vstem
        return
      </CharString>
      <CharString index="77">
        14 3 18 29 12 22 -2 -30 -15 -6 -15 -45 -17 vhcurveto
        -45 -18 -30 -31 -43 vvcurveto
        -34 vlineto
        return
      </CharString>
      <CharString index="78">
        -26 callsubr
        130 148 return
      </CharString>
      <CharString index="79">
        166 131 164 vstem
        return
      </CharString>
      <CharString index="80">
        -57 -57 vhcurveto
        return
      </CharString>
      <CharString index="81">
        127 -10 callgsubr
        14 18 4 24 27 -18 2 -14 hvcurveto
        -243 hlineto
        return
      </CharString>
      <CharString index="82">
        -47 59 0 25 71 0 42 21 return
      </CharString>
      <CharString index="83">
        14 0 37 -71 -77 -7 -29 -18 return
      </CharString>
      <CharString index="84">
        119 hlineto
        53 62 return
      </CharString>
      <CharString index="85">
        57 56 vhcurveto
        return
      </CharString>
      <CharString index="86">
        hlineto
        -73 callgsubr
        return
      </CharString>
      <CharString index="87">
        -100 211 66 223 -114 114 return
      </CharString>
      <CharString index="88">
        -20 -31 callsubr
        return
      </CharString>
      <CharString index="89">
        0 102 287 111 return
      </CharString>
      <CharString index="90">
        -11 callgsubr
        -14 callsubr
        return
      </CharString>
      <CharString index="91">
        152 vstem
        return
      </CharString>
      <CharString index="92">
        7 -4 114 -114 246 225 237 -110 110 return
      </CharString>
      <CharString index="93">
        -35 -3 -29 -59 -49 -5 52 21 vhcurveto
        return
      </CharString>
      <CharString index="94">
        -6 -58 -57 vhcurveto
        return
      </CharString>
      <CharString index="95">
        hstemhm
        46 123 -123 147 77 148 -131 131 return
      </CharString>
      <CharString index="96">
        97 -45 43 -95 -91 -52 -43 -97 return
      </CharString>
      <CharString index="97">
        332 rmoveto
        230 hlineto
        return
      </CharString>
      <CharString index="98">
        31 -179 -21 201 5 callsubr
        hstem
        return
      </CharString>
      <CharString index="99">
        700 rmoveto
        return
      </CharString>
      <CharString index="100">
        151 -1 141 -141 158 -2 148 return
      </CharString>
      <CharString index="101">
        25 2 -10 -29 -36 -21 -3 -11 -26 -4 17 13 return
      </CharString>
      <CharString index="102">
        -70 callgsubr
        endchar
      </CharString>
      <CharString index="103">
        -167 -58 callsubr
        return
      </CharString>
      <CharString index="104">
        152 hstemhm
        return
      </CharString>
      <CharString index="105">
        -288 -553 -8 -14 -6 -13 -1 -20 rlinecurve
        return
      </CharString>
      <CharString index="106">
        58 -7 56 -70 -67 -8 -56 -58 vhcurveto
        260 return
      </CharString>
      <CharString index="107">
        453 247 hstemhm
        return
      </CharString>
      <CharString index="108">
        -27 callgsubr
        endchar
      </CharString>
      <CharString index="109">
        rmoveto
        68 34 2 36 38 20 -18 -55 vhcurveto
        return
      </CharString>
      <CharString index="110">
        32 -16 -25 15 -27 hhcurveto
        -41 -18 -30 -33 return
      </CharString>
      <CharString index="111">
        -196 51 -51 125 return
      </CharString>
      <CharString index="112">
        127 -127 214 return
      </CharString>
      <CharString index="113">
        21 -21 500 -20 hstem
        return
      </CharString>
      <CharString index="114">
        0 23 callgsubr
        hstemhm
        return
      </CharString>
      <CharString index="115">
        0 208 vvcurveto
        return
      </CharString>
      <CharString index="116">
        -17 -16 -2 -27 -24 16 -4 17 hvcurveto
        return
      </CharString>
      <CharString index="117">
        -82 1 122 457 122 hstemhm
        return
      </CharString>
      <CharString index="118">
        108 128 55 193 1 hvcurveto
        return
      </CharString>
      <CharString index="119">
        rmoveto
        21 5 37 49 59 2 -30 -32 return
      </CharString>
      <CharString index="120">
        48 -48 107 19 147 -56 56 hstemhm
        return
      </CharString>
      <CharString index="121">
        37 35 3 59 54 -35 6 -37 hvcurveto
        return
      </CharString>
      <CharString index="122">
        599 rmoveto
        7 12 8 15 20 vvcurveto
        return
      </CharString>
      <CharString index="123">
        -295 vlineto
        -80 -77 24 callsubr
        -65 return
      </CharString>
      <CharString index="124">
        -30 0 197 -124 124 return
      </CharString>
      <CharString index="125">
        55 -3 118 459 130 return
      </CharString>
      <CharString index="126">
        11 11 vvcurveto
        39 -30 38 -54 vhcurveto
        return
      </CharString>
      <CharString index="127">
        hstemhm
        52 147 126 150 return
      </CharString>
      <CharString index="128">
        -21 197 -20 hstem
        return
      </CharString>
      <CharString index="129">
        vvcurveto
        -17 13 -15 19 return
      </CharString>
      <CharString index="130">
        50 197 -20 return
      </CharString>
      <CharString index="131">
        122 hstem
        return
      </CharString>
</ttFont>
